<?xml version="1.0" encoding="utf-8"?>
<svg width="374px" height="487px" viewBox="25.637 0 374 487" version="1.1" xmlns="http://www.w3.org/2000/svg" xmlns:xlink="http://www.w3.org/1999/xlink">
  <defs>
    <clipPath id="m">
      <path id="s" d="m398.7 191.85v-190.6h-371.94v298.56c0 1.123 0.623 20.088 0.623 20.088 0.791 11.852 2.92 24.098 5.676 35.645 8.23 34.486 29.813 65.293 59.325 84.93 7.778 5.176 15.988 9.684 24.451 13.633 30.844 14.395 64.062 20.025 95.947 30.982h-0.102c31.886-10.957 65.104-16.588 95.947-30.982 8.462-3.949 16.673-8.457 24.451-13.633 29.513-19.637 51.095-50.443 59.325-84.93 2.756-11.547 4.885-23.793 5.676-35.645 0 0 0.623-18.965 0.623-20.088v-107.96z"/>
    </clipPath>
    <clipPath id="m2">
      <path d="m288.66 269.68v128.72c-0.015 0.729-0.168 5.533-0.277 8.882-0.311 4.474-1.108 9.425-2.373 14.722-3.223 13.508-11.73 25.684-23.352 33.412-3.013 2.009-6.386 3.888-10.027 5.587-8.164 3.81-16.861 6.213-26.069 8.758-4.647 1.284-9.425 2.604-14.202 4.137-4.781-1.533-9.559-2.854-14.208-4.139-9.206-2.544-17.902-4.947-26.065-8.756-3.635-1.696-7.01-3.577-10.035-5.591-11.611-7.726-20.119-19.902-23.342-33.406-1.266-5.312-2.063-10.264-2.371-14.724-0.109-3.349-0.265-8.153-0.279-8.884v-128.71h152.6z"/>
    </clipPath>
    <radialGradient id="a" cx="160" cy="160" r="260" gradientUnits="userSpaceOnUse">
      <stop stop-color="#fff" stop-opacity=".314" offset="0"/>
      <stop stop-color="#fff" stop-opacity=".25" offset=".2"/>
      <stop stop-color="#6C6B6B" stop-opacity=".125" offset=".6"/>
      <stop stop-opacity=".125" offset="1"/>
    </radialGradient>
  </defs>
  <use xlink:href="#s" fill="#415ca3"/>
  <g fill="none" stroke="#111" stroke-width="1.5">
    <polygon points="371.4 268.93 371.4 248.1 368.3 242.99 368.3 184.32 371.4 180.44 371.4 150.16 332.52 150.16 332.52 180.18 335.43 184.32 335.43 190.4 327.28 190.4 327.28 193.63 321.2 190.4 314.34 190.4 314.34 165.75 317.06 160.96 317.06 83.402 319.65 79.003 302.12 58.561 282.9 83.402 244.99 83.402 244.99 56.491 212.53 56.491 212.47 56.491 180.01 56.491 180.01 83.402 142.1 83.402 122.89 58.561 105.36 79.003 107.94 83.402 107.94 160.96 110.66 165.75 110.66 190.4 103.8 190.4 97.723 193.63 97.723 190.4 89.572 190.4 89.572 184.32 92.482 180.18 92.482 150.16 53.604 150.16 53.604 180.44 56.709 184.32 56.709 242.99 53.604 248.1 53.604 268.93 73.4 268.93 105.62 268.93 155.69 268.93 212.09 268.93 212.92 268.93 269.32 268.93 319.39 268.93 351.6 268.93" fill="#fff"/>
    <g id="c">
      <polygon points="73.043 122.35 92.482 150.16 53.604 150.16" fill="#e0141a"/>
      <circle cx="73.043" cy="117.82" r="4.658" fill="#f8e945"/>
      <polygon points="73.917 113.16 73.917 113.16 72.171 113.16 72.171 92.199 73.917 92.199" fill="#111"/>
      <polygon points="81.259 100.58 81.259 100.58 64.827 100.58 64.827 98.83 81.259 98.83" fill="#111"/>
      <path d="m65.863 164.78h2.795v-6.352c0-0.021-0.012-0.421-0.012-0.421-0.013-0.257-0.041-0.518-0.082-0.753-0.118-0.734-0.443-1.396-0.889-1.809-0.111-0.11-0.229-0.206-0.363-0.288-0.455-0.303-0.945-0.432-1.422-0.664h2e-3c-0.48 0.232-0.971 0.361-1.425 0.664-0.138 0.082-0.251 0.178-0.364 0.288-0.445 0.413-0.769 1.074-0.887 1.809-0.041 0.235-0.07 0.496-0.085 0.753 0 0-9e-3 0.4-9e-3 0.421v6.352h2.793-0.052z"/>
      <path d="m80.168 164.78h2.795v-6.352c0-0.021-0.011-0.421-0.011-0.421-0.013-0.257-0.042-0.518-0.081-0.753-0.12-0.734-0.445-1.396-0.892-1.809-0.109-0.11-0.228-0.206-0.362-0.288-0.455-0.303-0.945-0.432-1.424-0.664h4e-3c-0.479 0.232-0.971 0.361-1.425 0.664-0.136 0.082-0.25 0.178-0.362 0.288-0.445 0.413-0.771 1.074-0.889 1.809-0.041 0.235-0.068 0.496-0.084 0.753 0 0-0.01 0.4-0.01 0.421v6.352h2.793-0.052z"/>
      <path d="m53.604 180.44s16.171-12.162 38.878-0.259"/>
      <path d="m56.709 184.32s15.009-7.504 32.863 0"/>
      <path d="m73.015 228.96h2.796v-34.623c0-0.02-0.012-0.422-0.012-0.422-0.014-0.256-0.041-0.517-0.081-0.752-0.118-0.734-0.443-1.395-0.892-1.809-0.109-0.11-0.227-0.207-0.361-0.288-0.455-0.304-0.944-0.431-1.422-0.663h2e-3c-0.479 0.232-0.971 0.359-1.426 0.663-0.136 0.081-0.249 0.178-0.362 0.288-0.445 0.414-0.769 1.074-0.888 1.809-0.041 0.235-0.069 0.496-0.084 0.752 0 0-0.01 0.402-0.01 0.422v34.623h2.792-0.052z"/>
      <polyline points="89.572 190.4 89.572 243.32 92.548 248.23 92.548 268.93"/>
      <path d="m56.709 242.99s18.631-3.559 32.863 0.323"/>
      <path d="m53.604 248.1s19.923-4.14 38.943 0.13"/>
      <polyline points="97.723 193.63 97.723 200.88 103.8 200.88 103.8 190.4"/>
      <polyline points="110.66 190.4 116.22 190.4 116.22 200.88 122.44 200.88 122.44 190.4 133.88 188.07"/>
      <polyline points="129.62 147.32 129.62 178.46 133.88 182.64 133.88 237.56 129.62 243.28 129.62 268.93"/>
      <path d="M107.94,160.96h21.68"/>
      <path d="M110.66,165.75h18.96"/>
      <path d="m114.86 153.23h13.197v-22.706s-5.908-3.104-13.197 0v22.706z"/>
      <rect x="114.86" y="89.288" width="4.756" height="28.141"/>
      <rect x="123.31" y="89.288" width="4.756" height="28.141"/>
      <path d="M107.94,83.402h34.16"/>
      <path d="M105.36,79.003h33.34"/>
      <polygon points="149.06 119.31 168.49 147.12 129.62 147.12" fill="#e0141a"/>
      <circle cx="149.05" cy="114.78" r="4.658" fill="#f8e945"/>
      <path d="m141.87 162.26h2.796v-6.351c0-0.021-0.012-0.422-0.012-0.422-0.014-0.256-0.041-0.517-0.081-0.753-0.12-0.733-0.444-1.394-0.892-1.809-0.109-0.109-0.227-0.206-0.361-0.288-0.455-0.303-0.945-0.43-1.423-0.662h3e-3c-0.48 0.232-0.972 0.359-1.426 0.662-0.136 0.082-0.249 0.179-0.362 0.288-0.445 0.415-0.769 1.075-0.888 1.809-0.041 0.236-0.069 0.497-0.084 0.753 0 0-0.01 0.401-0.01 0.422v6.351h2.792-0.052z"/>
      <path d="m156.18 162.26h2.795v-6.351c0-0.021-0.012-0.422-0.012-0.422-0.012-0.256-0.041-0.517-0.081-0.753-0.12-0.733-0.444-1.394-0.892-1.809-0.109-0.109-0.227-0.206-0.361-0.288-0.455-0.303-0.945-0.43-1.423-0.662h2e-3c-0.479 0.232-0.971 0.359-1.425 0.662-0.135 0.082-0.249 0.179-0.363 0.288-0.444 0.415-0.768 1.075-0.887 1.809-0.041 0.236-0.069 0.497-0.084 0.753 0 0-0.01 0.401-0.01 0.422v6.351h2.793-0.052z"/>
      <path d="m129.62 178.46s19.343-11.547 38.879 0l-3.559 4.188s-11.838-7.778-31.051-0.015"/>
      <polyline points="164.94 182.65 164.94 237.16 169.2 243.32 169.2 268.93"/>
      <path d="m133.88 237.56s14.168-5.841 31.051-0.397"/>
      <path d="m129.62 243.28s19.795-7.989 39.59 0.032"/>
      <path d="M89.572,206.31 133.88,204.18"/>
      <path d="m110.9 268.93h5.643v-39.542c0-0.04-0.022-0.852-0.022-0.852-0.026-0.516-0.083-1.041-0.163-1.519-0.242-1.481-0.896-2.815-1.799-3.651-0.223-0.221-0.46-0.416-0.73-0.582-0.92-0.611-1.908-0.868-2.873-1.338h4e-3c-0.967 0.47-1.959 0.727-2.875 1.338-0.274 0.166-0.504 0.361-0.733 0.582-0.898 0.836-1.553 2.17-1.792 3.651-0.082 0.478-0.139 1.003-0.17 1.519 0 0-0.018 0.812-0.018 0.852v39.542h5.635-0.107z"/>
      <path d="m110.91 268.93h11.002l-0.129-25.013v-13.393c0-0.08-0.043-1.658-0.043-1.658-0.051-1.009-0.162-2.033-0.318-2.962-0.473-2.89-1.75-5.491-3.506-7.121-0.435-0.43-0.896-0.81-1.428-1.133-1.791-1.191-3.719-1.693-5.599-2.608h7e-3c-1.885 0.915-3.819 1.417-5.604 2.608-0.536 0.323-0.983 0.703-1.43 1.133-1.752 1.63-3.027 4.231-3.493 7.121-0.16 0.929-0.272 1.953-0.33 2.962 0 0-0.037 1.578-0.037 1.658v13.393l0.127 25.013h10.988-0.207z"/>
      <path d="m149.03 222.68h2.795v-34.622c0-0.02-0.012-0.421-0.012-0.421-0.013-0.257-0.041-0.518-0.08-0.753-0.121-0.734-0.445-1.396-0.892-1.809-0.11-0.109-0.229-0.206-0.362-0.289-0.455-0.302-0.945-0.43-1.422-0.663-0.479 0.233-0.971 0.361-1.423 0.663-0.138 0.083-0.251 0.18-0.362 0.289-0.447 0.413-0.771 1.074-0.89 1.809-0.04 0.235-0.067 0.496-0.083 0.753 0 0-0.01 0.401-0.01 0.421v34.622h2.793-0.052z"/>
      <circle cx="122.89" cy="53.902" r="4.658" fill="#f8e945"/>
      <polygon points="122.89 58.561 180.01 58.625 180.01 83.402 142.1 83.402" fill="#e0141a"/>
      <circle cx="122.82" cy="71.014" r="4.658"/>
      <circle cx="151.75" cy="98.326" r="4.658"/>
      <circle cx="158.9" cy="92.391" r="4.658"/>
      <circle cx="166.06" cy="98.326" r="4.658"/>
      <circle cx="158.9" cy="104.26" r="4.658"/>
      <circle cx="190.82" cy="63.8" r="4.658"/>
      <circle cx="185.51" cy="24.533" r="4.658" fill="#f8e945"/>
      <path d="M185.51,9.396v10.479"/>
      <path d="M190.17,24.533h17.65"/>
      <path d="M212.47,9.396v10.479"/>
      <path d="m203.33 125.32h6.371v-22.591c0-0.047-0.027-0.96-0.027-0.96-0.028-0.585-0.094-1.178-0.184-1.716-0.273-1.673-1.014-3.178-2.031-4.121-0.25-0.25-0.519-0.471-0.824-0.657-1.039-0.688-2.154-0.98-3.242-1.511h4e-3c-1.092 0.53-2.212 0.822-3.246 1.511-0.311 0.187-0.568 0.407-0.827 0.657-1.014 0.943-1.752 2.448-2.022 4.121-0.093 0.538-0.156 1.131-0.189 1.716 0 0-0.023 0.913-0.023 0.96v22.591h6.362-0.122z"/>
      <circle cx="202.76" cy="108.3" r="2.278"/>
      <path d="M197.09,108.3h3.39"/>
      <circle cx="202.75" cy="119.31" r="2.278"/>
      <path d="M197.08,119.31h3.39"/>
      <polyline points="209.49 100.05 212.38 100.05 212.47 125"/>
      <circle cx="185.18" cy="185.35" r="4.658"/>
      <circle cx="185.18" cy="185.35" r="9.092"/>
      <path d="m187.45 169.63v-8.669s9.754-2.846 17.588 0v8.669h-17.588z"/>
      <circle cx="206.88" cy="195.85" r="4.017"/>
      <ellipse cx="212.48" cy="195.69" rx="9.606" ry="9.719"/>
      <circle cx="206.94" cy="79.747" r="4.017"/>
      <path d="M142.1,83.402v45.858"/>
      <path d="m168.49 157.12 v21"/>
      <path d="m194.89 268.93v-64.755s0-2.651 2.199-0.776l2.329 1.844 4.836-4.366"/>
      <path d="M208.74,204.81v18.8"/>
      <polygon points="208.74 227.37 206.57 222.07 208.74 223.33 210.9 222.07" fill="#111" stroke="none"/>
      <path d="M200.93,203.89v19.72"/>
      <polygon points="200.93 227.37 198.77 222.07 200.93 223.33 203.1 222.07" fill="#111" stroke="none"/>
      <path d="M194.89,216.4h17.64"/>
      <path d="M194.89,207.28h17.64"/>
    </g>
    <use xlink:href="#c" transform="scale(-1,1) translate(-425)"/>
    <path d="M212.48,9.56v10.48"/>
    <path d="m236.46 125.32v-37.588c-2.976-21.543-23.926-28.008-23.926-28.008h-0.057s-20.95 6.466-23.926 28.009v37.588"/>
    <path d="m229.99 125.32v-36.356s-0.388-7.763-4.398-12.161c0 0-5.092-8.021-12.961-10.48h-0.25c-7.869 2.459-12.961 10.48-12.961 10.48-4.011 4.398-4.398 12.161-4.398 12.161v36.356"/>
    <path d="m237.56 268.93v-63.688c-0.193-4.172-2.387-5.381-2.387-5.381l-2.465-1.443c-4.01-1.94-3.941-4.257-3.941-4.257-0.71-4.258-3.174-8.035-3.174-8.035-5.822-7.374-13.058-6.209-13.058-6.209h-0.057s-7.235-1.165-13.058 6.209c0 0-2.464 3.777-3.174 8.035 0 0 0.068 2.316-3.941 4.256l-2.466 1.444s-2.192 1.209-2.386 5.381v63.688"/>
    <circle cx="212.48" cy="24.37" r="4.657" fill="#f8e945"/>
    <circle cx="212.48" cy="73.719" r="4.017"/>
    <circle cx="212.48" cy="189.98" r="4.017"/>
    <circle cx="212.48" cy="201.38" r="4.017"/>
    <circle cx="212.48" cy="85.12" r="4.017"/>
    <polygon points="212.47 29.191 184.41 29.191 174.83 52.35 180.01 56.491 244.99 56.491 250.17 52.35 240.6 29.191 212.53 29.191" fill="#e0141a"/>
    <polyline points="212.63 125.32 271.74 125.32 256.51 147.12 256.51 157.8 212.63 157.8 212.38 157.8 168.49 157.8 168.49 147.12 153.26 125.32 212.38 125.32" fill="#e0141a"/>
  </g>
  <path d="m209.49 262.53 188.84 12.785v24.495c0 1.123-0.623 20.088-0.623 20.088-0.791 11.852-2.92 24.098-5.676 35.645-8.23 34.486-29.813 65.293-59.325 84.93-7.778 5.176-15.989 9.684-24.451 13.633-30.844 14.395-64.062 20.025-95.947 30.982h0.102c-31.886-10.957-65.104-16.588-95.947-30.982-8.463-3.949-16.673-8.457-24.451-13.633-29.513-19.637-51.095-50.443-59.325-84.93-2.756-11.547-4.885-23.793-5.676-35.645 0 0-0.623-18.965-0.623-20.088v-26.496l183.1-10.784z" fill="#fff" stroke="#111" stroke-width="1.5"/>
  <g clip-path="url(#m)" fill="none" stroke="#111">
    <path stroke-width="400" stroke-dasharray=".5,5.39" d="m200,274.85v250"/>
    <path id="fug" stroke-width="6" stroke-dasharray=".5,11.28" d="m28.8,272.12h400 m-400,11.78h400 m-400,11.78h400 m-400,11.78h400 m-400,11.78h400 m-400,11.78h400 m-400,11.78h400 m-400,11.78h400 m-400,11.78h400 m-400,11.78h400 m-400,11.78h400 m-400,11.78h400 m-400,11.78h400 m-400,11.78h400 m-400,11.78h400 m-400,11.78h400 m-400,11.78h400"/>
    <use transform="translate(5.89,5.89)" xlink:href="#fug"/>
    <path d="m72.956 353.32h8.963v-20.375c0-0.065-0.037-1.35-0.037-1.35-0.041-0.824-0.131-1.66-0.263-2.415-0.38-2.355-1.423-4.476-2.851-5.801-0.357-0.354-0.732-0.66-1.165-0.924-1.46-0.971-3.032-1.385-4.56-2.13h6e-3c-1.541 0.745-3.113 1.159-4.57 2.13-0.441 0.264-0.805 0.57-1.168 0.924-1.428 1.325-2.465 3.445-2.844 5.801-0.132 0.755-0.226 1.591-0.272 2.415 0 0-0.028 1.284-0.028 1.35v20.375h8.957-0.168z" fill="#fff" stroke="#111" stroke-width="1.5"/>
    <path d="m351 353.32h8.963v-20.376c0-0.064-0.037-1.35-0.037-1.35-0.041-0.824-0.131-1.66-0.263-2.414-0.38-2.355-1.423-4.477-2.851-5.801-0.357-0.354-0.732-0.66-1.165-0.924-1.46-0.971-3.032-1.385-4.56-2.131h6e-3c-1.541 0.746-3.113 1.16-4.57 2.131-0.441 0.264-0.805 0.57-1.168 0.924-1.428 1.324-2.465 3.445-2.844 5.801-0.132 0.754-0.226 1.59-0.272 2.414 0 0-0.028 1.285-0.028 1.35v20.376h8.957-0.168z" fill="#fff" stroke="#111" stroke-width="1.5"/>
  </g>
  <path d="m26.387 280.9v-9.476c0.75-0.101 48.682-6.604 117.77-9.874 40.567-1.92 80.558-2.338 118.86-1.24 47.906 1.373 93.705 5.009 135.32 11.052v9.538c-93.42-13.565-190.28-12.85-253.61-9.856-68.678 3.245-115.84 9.791-116.3 9.856h-2.029z" fill="#e0141a" stroke="#111" stroke-width="1.5"/>
  <g clip-path="url(#m2)" stroke="#111" stroke-width="1.5">
    <rect x="127.5" y="268.5" width="171.3" height="23" fill="#e0141a"/>
    <rect x="127.5" y="291.5" width="171.3" height="23" fill="#fff"/>
    <rect x="127.5" y="314.5" width="171.3" height="23" fill="#e0141a"/>
    <rect x="127.5" y="337.5" width="171.3" height="23" fill="#fff"/>
    <rect x="127.5" y="360.5" width="171.3" height="23" fill="#e0141a"/>
    <rect x="127.5" y="383.5" width="171.3" height="23" fill="#fff"/>
    <rect x="127.5" y="406.5" width="171.3" height="23" fill="#e0141a"/>
    <rect x="127.5" y="429.5" width="171.3" height="23" fill="#fff"/>
    <rect x="127.5" y="452.5" width="171.3" height="23" fill="#e0141a"/>
  </g>
  <path d="m288.66 269.68v128.72c-0.015 0.729-0.168 5.533-0.277 8.882-0.311 4.474-1.108 9.425-2.373 14.722-3.223 13.508-11.73 25.684-23.352 33.412-3.013 2.009-6.386 3.888-10.027 5.587-8.164 3.81-16.861 6.213-26.069 8.758-4.647 1.284-9.425 2.604-14.202 4.137-4.781-1.533-9.559-2.854-14.208-4.139-9.206-2.544-17.902-4.947-26.065-8.756-3.635-1.696-7.01-3.577-10.035-5.591-11.611-7.726-20.119-19.902-23.342-33.406-1.266-5.312-2.063-10.264-2.371-14.724-0.109-3.349-0.265-8.153-0.279-8.884v-128.71h152.6m10-10h-87.135 1.668-87.135v138.78c0 0.521 0.291 9.321 0.291 9.321 0.365 5.5 1.355 11.184 2.633 16.54 3.818 16.004 13.834 30.301 27.529 39.412 3.609 2.403 7.42 4.495 11.346 6.327 14.307 6.676 29.713 9.29 44.501 14.369 14.792-5.079 30.196-7.693 44.501-14.369 3.928-1.832 7.74-3.924 11.346-6.327 13.699-9.111 23.713-23.408 27.531-39.412 1.279-5.356 2.268-11.04 2.635-16.54 0 0 0.289-8.8 0.289-9.321v-138.78zm-86.302 224.75c-9e-3 2e-3 -0.017 5e-3 -0.024 8e-3h0.049c-8e-3 -3e-3 -0.016-6e-3 -0.025-8e-3z" fill="#f8e945" stroke="#111" stroke-width="1.5"/>
  <use xlink:href="#s" fill="url(#a)" stroke="#111" stroke-width="2"/>
</svg>
