<?xml version="1.0" encoding="UTF-8" standalone="no"?>
<!-- Created with Inkscape (http://www.inkscape.org/) -->

<svg
   xmlns:dc="http://purl.org/dc/elements/1.1/"
   xmlns:cc="http://creativecommons.org/ns#"
   xmlns:rdf="http://www.w3.org/1999/02/22-rdf-syntax-ns#"
   xmlns:svg="http://www.w3.org/2000/svg"
   xmlns="http://www.w3.org/2000/svg"
   xmlns:sodipodi="http://sodipodi.sourceforge.net/DTD/sodipodi-0.dtd"
   xmlns:inkscape="http://www.inkscape.org/namespaces/inkscape"
   width="744.09448819"
   height="1052.3622047"
   id="svg2"
   version="1.1"
   inkscape:version="0.48.3.1 r9886"
   sodipodi:docname="Dunaújváros.svg">
  <defs
     id="defs4" />
  <sodipodi:namedview
     id="base"
     pagecolor="#ffffff"
     bordercolor="#666666"
     borderopacity="1.0"
     inkscape:pageopacity="0.0"
     inkscape:pageshadow="2"
     inkscape:zoom="0.35"
     inkscape:cx="183.97191"
     inkscape:cy="676.16372"
     inkscape:document-units="px"
     inkscape:current-layer="layer1"
     showgrid="false"
     inkscape:window-width="1280"
     inkscape:window-height="744"
     inkscape:window-x="-4"
     inkscape:window-y="-4"
     inkscape:window-maximized="1">
    <inkscape:grid
       type="xygrid"
       id="grid3004" />
  </sodipodi:namedview>
  <metadata
     id="metadata7">
    <rdf:RDF>
      <cc:Work
         rdf:about="">
        <dc:format>image/svg+xml</dc:format>
        <dc:type
           rdf:resource="http://purl.org/dc/dcmitype/StillImage" />
        <dc:title></dc:title>
      </cc:Work>
    </rdf:RDF>
  </metadata>
  <g
     inkscape:label="Layer 1"
     inkscape:groupmode="layer"
     id="layer1">
    <g
       id="g3231"
       transform="translate(-1010,490)">
      <g
         id="g3265"
         transform="translate(-519.88156,-148.94091)" />
    </g>
    <g
       id="g4750"
       transform="translate(2,-52)">
      <g
         transform="translate(1498.8571,18.857143)"
         id="g4455">
        <path
           style="fill:#000000;stroke:none"
           d="m -1500,112.36218 741,0 c 0,0 -0.7698,361.99876 0,526.99999 0.6778,145.27525 -49.6327,212.03932 -91.7143,263.92857 -58.4438,72.0649 -160.4376,130.06126 -279.2857,131.07146 -110.7637,0.9414 -224.5172,-60.77363 -289.4306,-144.79654 C -1476.102,816.21113 -1500,737.36001 -1500,639.36217 c 0,-165 0,-526.99999 0,-526.99999 z"
           id="path3006"
           inkscape:connector-curvature="0"
           sodipodi:nodetypes="ccsssssc" />
        <g
           id="g3207"
           transform="translate(-650,40)">
          <g
             transform="translate(-399.88156,1.0590926)"
             id="g3062">
            <path
               style="fill:#da251c;fill-opacity:1;stroke:none"
               d="m 39.88156,381.30309 120,0 0,150 -120,0 z"
               id="path3018"
               inkscape:connector-curvature="0"
               sodipodi:nodetypes="ccccc" />
          </g>
          <g
             transform="translate(-0.04638,-0.07899738)"
             id="g3068">
            <path
               inkscape:connector-curvature="0"
               id="path3020"
               d="m -479.95362,382.44118 120,0 0,150 -120,0 z"
               style="fill:#d7d7d7;fill-opacity:1;stroke:none"
               sodipodi:nodetypes="ccccc" />
          </g>
          <g
             id="g3107"
             transform="translate(239.95362,-0.07899738)">
            <path
               sodipodi:nodetypes="ccccc"
               style="fill:#d7d7d7;fill-opacity:1;stroke:none"
               d="m -479.95362,382.44118 120,0 0,150 -120,0 z"
               id="path3109"
               inkscape:connector-curvature="0" />
          </g>
          <g
             id="g3111"
             transform="translate(-399.88156,-298.94091)">
            <path
               sodipodi:nodetypes="ccccc"
               inkscape:connector-curvature="0"
               id="path3113"
               d="m 39.88156,381.30309 120,0 0,150 -120,0 z"
               style="fill:#da251c;fill-opacity:1;stroke:none" />
          </g>
          <g
             id="g3115"
             transform="translate(-0.04638,-300.079)">
            <path
               sodipodi:nodetypes="ccccc"
               style="fill:#d7d7d7;fill-opacity:1;stroke:none"
               d="m -479.95362,382.44118 120,0 0,150 -120,0 z"
               id="path3117"
               inkscape:connector-curvature="0" />
          </g>
          <g
             transform="translate(239.95362,-300.079)"
             id="g3119">
            <path
               inkscape:connector-curvature="0"
               id="path3121"
               d="m -479.95362,382.44118 120,0 0,150 -120,0 z"
               style="fill:#d7d7d7;fill-opacity:1;stroke:none"
               sodipodi:nodetypes="ccccc" />
          </g>
          <g
             id="g3123"
             transform="translate(-519.88156,-148.94091)">
            <path
               sodipodi:nodetypes="ccccc"
               inkscape:connector-curvature="0"
               id="path3125"
               d="m 39.88156,381.30309 120,0 0,150 -120,0 z"
               style="fill:#da251c;fill-opacity:1;stroke:none" />
          </g>
          <g
             transform="translate(119.95362,-150.079)"
             id="g3127">
            <path
               inkscape:connector-curvature="0"
               id="path3129"
               d="m -479.95362,382.44118 120,0 0,150 -120,0 z"
               style="fill:#d7d7d7;fill-opacity:1;stroke:none"
               sodipodi:nodetypes="ccccc" />
          </g>
          <g
             transform="translate(-519.88156,-148.94091)"
             id="g3131">
            <path
               style="fill:#da251c;fill-opacity:1;stroke:none"
               d="m 39.88156,381.30309 120,0 0,150 -120,0 z"
               id="path3133"
               inkscape:connector-curvature="0"
               sodipodi:nodetypes="ccccc" />
          </g>
          <g
             id="g3135"
             transform="translate(119.95362,-150.079)">
            <path
               sodipodi:nodetypes="ccccc"
               style="fill:#d7d7d7;fill-opacity:1;stroke:none"
               d="m -479.95362,382.44118 120,0 0,150 -120,0 z"
               id="path3137"
               inkscape:connector-curvature="0" />
          </g>
          <g
             transform="translate(-279.88156,-148.94091)"
             id="g3139">
            <path
               style="fill:#da251c;fill-opacity:1;stroke:none"
               d="m 39.88156,381.30309 120,0 0,150 -120,0 z"
               id="path3141"
               inkscape:connector-curvature="0"
               sodipodi:nodetypes="ccccc" />
          </g>
        </g>
        <g
           id="g3233"
           transform="translate(-1409.8816,491.05909)">
          <path
             sodipodi:nodetypes="cccccc"
             inkscape:connector-curvature="0"
             id="path3235"
             d="m 39.88156,381.30309 120,0 0,128 c -40,-15 -66.018884,-31.40652 -95,-52 -11.472696,-8.26905 -25,-21 -25,-21 z"
             style="fill:#da251c;fill-opacity:1;stroke:none" />
        </g>
        <g
           id="g3237"
           transform="translate(-1010.0464,489.921)">
          <path
             sodipodi:nodetypes="cccc"
             style="fill:#d7d7d7;fill-opacity:1;stroke:none"
             d="m -406.95362,382.44118 47,0 0,55 c -19.1271,-16.81314 -33.11225,-36.06215 -47,-55 z"
             id="path3239"
             inkscape:connector-curvature="0" />
        </g>
        <g
           transform="translate(-770.04638,489.921)"
           id="g3241">
          <path
             inkscape:connector-curvature="0"
             id="path3243"
             d="m -479.95362,382.44118 120,0 0,150 c 0,0 -31.5078,-0.38146 -45,-2 -29.12963,-3.49443 -47.62455,-10.04827 -75,-20 z"
             style="fill:#d7d7d7;fill-opacity:1;stroke:none"
             sodipodi:nodetypes="cccscc" />
        </g>
        <g
           transform="translate(-1409.8816,191.05909)"
           id="g3245">
          <path
             style="fill:#da251c;fill-opacity:1;stroke:none"
             d="m 39.88156,381.30309 120,0 0,150 -120,0 z"
             id="path3247"
             inkscape:connector-curvature="0"
             sodipodi:nodetypes="ccccc" />
        </g>
        <g
           transform="translate(-1010.0464,189.921)"
           id="g3249">
          <path
             inkscape:connector-curvature="0"
             id="path3251"
             d="m -479.95362,382.44118 120,0 0,150 -113,0 c -7,-50 -7,-99.68167 -7,-150 z"
             style="fill:#d7d7d7;fill-opacity:1;stroke:none"
             sodipodi:nodetypes="ccccc" />
        </g>
        <g
           id="g3253"
           transform="translate(-770.04638,189.921)">
          <path
             sodipodi:nodetypes="ccccc"
             style="fill:#d7d7d7;fill-opacity:1;stroke:none"
             d="m -479.95362,382.44118 120,0 0,150 -120,0 z"
             id="path3255"
             inkscape:connector-curvature="0" />
        </g>
        <g
           id="g3261"
           transform="translate(-890.04638,339.921)">
          <path
             sodipodi:nodetypes="ccccc"
             style="fill:#d7d7d7;fill-opacity:1;stroke:none"
             d="m -479.95362,382.44118 120,0 0,150 -120,0 z"
             id="path3263"
             inkscape:connector-curvature="0" />
        </g>
        <path
           transform="translate(-1529.8816,341.05909)"
           sodipodi:nodetypes="ccccc"
           inkscape:connector-curvature="0"
           id="path3267"
           d="m 46.88156,381.30309 113,0 0,150 -46,0 c -39,-40 -64,-115 -67,-150 z"
           style="fill:#da251c;fill-opacity:1;stroke:none" />
        <g
           transform="translate(-890.04638,339.921)"
           id="g3269">
          <path
             inkscape:connector-curvature="0"
             id="path3271"
             d="m -479.95362,382.44118 120,0 0,150 -120,0 z"
             style="fill:#d7d7d7;fill-opacity:1;stroke:none"
             sodipodi:nodetypes="ccccc" />
        </g>
        <g
           id="g3273"
           transform="translate(-1289.8816,341.05909)">
          <path
             sodipodi:nodetypes="ccccc"
             inkscape:connector-curvature="0"
             id="path3275"
             d="m 39.88156,381.30309 120,0 0,150 -120,0 z"
             style="fill:#da251c;fill-opacity:1;stroke:none" />
        </g>
        <g
           id="g3103"
           transform="translate(-650,40)">
          <path
             sodipodi:nodetypes="ccccc"
             inkscape:connector-curvature="0"
             id="path3008"
             d="m -840,82.362183 360,0 0,449.999997 -360,0 z"
             style="fill:#5895cc;fill-opacity:1;stroke:none" />
          <path
             style="fill:#5895cc;fill-opacity:1;stroke:none"
             d="m -480,532.36218 360,0 c 0,150 -9.17339,225.70228 -90,320 -60,70 -160,130 -270,130 z"
             id="path3101"
             inkscape:connector-curvature="0"
             sodipodi:nodetypes="ccscc" />
        </g>
        <g
           id="g4075"
           transform="translate(-650,39.999997)">
          <path
             inkscape:connector-curvature="0"
             id="path4047"
             d="m -480,82.36218 0,900"
             style="fill:none;stroke:#000000;stroke-width:5;stroke-linecap:butt;stroke-linejoin:miter;stroke-miterlimit:4;stroke-opacity:1;stroke-dasharray:none"
             sodipodi:nodetypes="cc" />
          <path
             inkscape:connector-curvature="0"
             id="path4049"
             d="m -840,532.36218 720,0"
             style="fill:none;stroke:#000000;stroke-width:5;stroke-linecap:butt;stroke-linejoin:miter;stroke-miterlimit:4;stroke-opacity:1;stroke-dasharray:none" />
        </g>
        <g
           id="g4059"
           transform="translate(-650,39.999997)">
          <path
             inkscape:connector-curvature="0"
             id="path4051"
             d="m -360,82.36218 0,450"
             style="fill:none;stroke:#000000;stroke-width:2;stroke-linecap:butt;stroke-linejoin:miter;stroke-miterlimit:4;stroke-opacity:1;stroke-dasharray:none"
             sodipodi:nodetypes="cc" />
          <path
             inkscape:connector-curvature="0"
             id="path4053"
             d="m -240,82.36218 0,450"
             style="fill:none;stroke:#000000;stroke-width:2;stroke-linecap:butt;stroke-linejoin:miter;stroke-miterlimit:4;stroke-opacity:1;stroke-dasharray:none"
             sodipodi:nodetypes="cc" />
          <path
             inkscape:connector-curvature="0"
             id="path4055"
             d="m -480,232.36218 360,0"
             style="fill:none;stroke:#000000;stroke-width:2;stroke-linecap:butt;stroke-linejoin:miter;stroke-miterlimit:4;stroke-opacity:1;stroke-dasharray:none" />
          <path
             inkscape:connector-curvature="0"
             id="path4057"
             d="m -480,382.36218 360,0"
             style="fill:none;stroke:#000000;stroke-width:2;stroke-linecap:butt;stroke-linejoin:miter;stroke-miterlimit:4;stroke-opacity:1;stroke-dasharray:none" />
        </g>
        <g
           transform="translate(-1010,489.99999)"
           id="g4079">
          <path
             sodipodi:nodetypes="cc"
             style="fill:none;stroke:#000000;stroke-width:2;stroke-linecap:butt;stroke-linejoin:miter;stroke-miterlimit:4;stroke-opacity:1;stroke-dasharray:none"
             d="m -360,82.362183 0,360.000007"
             id="path4081"
             inkscape:connector-curvature="0" />
          <path
             sodipodi:nodetypes="cc"
             style="fill:none;stroke:#000000;stroke-width:2;stroke-linecap:butt;stroke-linejoin:miter;stroke-miterlimit:4;stroke-opacity:1;stroke-dasharray:none"
             d="m -240,82.362183 0,435.000007"
             id="path4083"
             inkscape:connector-curvature="0" />
          <path
             style="fill:none;stroke:#000000;stroke-width:2;stroke-linecap:butt;stroke-linejoin:miter;stroke-miterlimit:4;stroke-opacity:1;stroke-dasharray:none"
             d="m -480,232.36219 360,-1e-5"
             id="path4085"
             inkscape:connector-curvature="0"
             sodipodi:nodetypes="cc" />
          <path
             style="fill:none;stroke:#000000;stroke-width:2;stroke-linecap:butt;stroke-linejoin:miter;stroke-miterlimit:4;stroke-opacity:1;stroke-dasharray:none"
             d="m -415,382.36219 295,-10e-6"
             id="path4087"
             inkscape:connector-curvature="0"
             sodipodi:nodetypes="cc" />
        </g>
      </g>
      <g
         id="g4715">
        <g
           id="g4582"
           transform="translate(-312.35717,37.000003)">
          <path
             sodipodi:nodetypes="ccscsccscsccccc"
             inkscape:connector-curvature="0"
             id="path4534"
             d="m 805,657.36218 0,-5 c -8.72508,-5.93302 -10.45542,-16.94195 -5.4731,-25.03254 4.81892,-7.82526 24.63104,-13.40416 33.6118,0.0122 6.61997,-11.59083 13.39897,-12.03473 17.37857,-11.84826 3.31707,0.15543 10.83528,1.59154 11.19286,10.06255 l 8.21429,0 c 2.53952,-8.72636 8.23827,-10.14587 13.65436,-9.8964 4.28553,0.1974 9.89676,3.10766 15.27421,11.68211 12.01976,-13.5099 24.85098,-6.37693 29.14322,-4.69194 C 940,627.36218 945,647.36218 925,652.36218 l 0,5 -26.8613,65.3368 -66.42857,0.35715 z"
             style="fill:#d7d7d7;fill-opacity:1;stroke:none" />
          <path
             sodipodi:nodetypes="ccccc"
             inkscape:connector-curvature="0"
             id="path4518"
             d="m 820,742.36218 95,0 0,115 -95,0 z"
             style="fill:#d7d7d7;fill-opacity:1;stroke:#000000;stroke-width:2;stroke-linecap:butt;stroke-linejoin:miter;stroke-miterlimit:4;stroke-opacity:1;stroke-dasharray:none" />
          <path
             inkscape:connector-curvature="0"
             id="path4520"
             d="m 840,857.36218 0,-95"
             style="fill:none;stroke:#000000;stroke-width:2;stroke-linecap:butt;stroke-linejoin:miter;stroke-miterlimit:4;stroke-opacity:1;stroke-dasharray:none" />
          <path
             inkscape:connector-curvature="0"
             id="path4522"
             d="m 867.5,857.36218 0,-95"
             style="fill:none;stroke:#000000;stroke-width:2;stroke-linecap:butt;stroke-linejoin:miter;stroke-miterlimit:4;stroke-opacity:1;stroke-dasharray:none" />
          <path
             inkscape:connector-curvature="0"
             id="path4524"
             d="m 895,857.36218 0,-95"
             style="fill:none;stroke:#000000;stroke-width:2;stroke-linecap:butt;stroke-linejoin:miter;stroke-miterlimit:4;stroke-opacity:1;stroke-dasharray:none" />
          <path
             sodipodi:nodetypes="cccc"
             inkscape:connector-curvature="0"
             id="path4526"
             d="m 820,722.36218 28,0 c 1.11258,-78.81045 -59.67077,-92.1132 -59.78571,-18.57143 21.07369,-33.28618 34.54488,-10.68371 31.78571,18.57143 z"
             style="fill:#d7d7d7;fill-opacity:1;stroke:#000000;stroke-width:2;stroke-linecap:butt;stroke-linejoin:miter;stroke-miterlimit:4;stroke-opacity:1;stroke-dasharray:none" />
          <path
             style="fill:#d7d7d7;fill-opacity:1;stroke:#000000;stroke-width:2;stroke-linecap:butt;stroke-linejoin:miter;stroke-miterlimit:4;stroke-opacity:1;stroke-dasharray:none"
             d="m 910,722.36218 -28,0 c -1.11258,-78.81045 59.67077,-92.1132 59.78571,-18.57143 C 920.71202,670.50457 907.24083,693.10704 910,722.36218 z"
             id="path4530"
             inkscape:connector-curvature="0"
             sodipodi:nodetypes="cccc" />
          <path
             sodipodi:nodetypes="cccc"
             inkscape:connector-curvature="0"
             id="path4532"
             d="m 848,722.36218 34,0 c -1.49172,-25.83753 3,-55 -17,-70 -20,15 -14.66947,44.36422 -17,70 z"
             style="fill:#d7d7d7;fill-opacity:1;stroke:#000000;stroke-width:2;stroke-linecap:butt;stroke-linejoin:miter;stroke-miterlimit:4;stroke-opacity:1;stroke-dasharray:none" />
          <path
             sodipodi:nodetypes="ccccc"
             inkscape:connector-curvature="0"
             id="path4516"
             d="m 810,722.36218 115,0 0,20 -115,0 z"
             style="fill:#d7d7d7;fill-opacity:1;stroke:#000000;stroke-width:2;stroke-linecap:butt;stroke-linejoin:miter;stroke-miterlimit:4;stroke-opacity:1;stroke-dasharray:none" />
          <path
             sodipodi:nodetypes="csssc"
             inkscape:connector-curvature="0"
             id="path4536"
             d="m 843.92858,660.57648 c -3.06516,-23.90782 -10.40996,-43.96922 -31.07142,-40.35715 -11.95282,2.08961 -21.78578,15.46579 -13.21429,27.85715 5.86369,8.47683 16.49317,4.21802 16.78571,-2.5 0.37904,-8.70423 -4.43137,-12.65818 -10,-8.21429"
             style="fill:none;stroke:#000000;stroke-width:2;stroke-linecap:butt;stroke-linejoin:miter;stroke-miterlimit:4;stroke-opacity:1;stroke-dasharray:none" />
          <path
             style="fill:none;stroke:#000000;stroke-width:2;stroke-linecap:butt;stroke-linejoin:miter;stroke-miterlimit:4;stroke-opacity:1;stroke-dasharray:none"
             d="m 889.97419,659.86219 c 3.06516,-23.90782 10.40996,-43.96922 31.07142,-40.35715 11.95282,2.08961 21.78578,15.46579 13.21429,27.85715 -5.86369,8.47683 -16.49317,4.21802 -16.78571,-2.5 -0.37904,-8.70423 4.43137,-12.65818 10,-8.21429"
             id="path4538"
             inkscape:connector-curvature="0"
             sodipodi:nodetypes="csssc" />
          <path
             sodipodi:nodetypes="csssc"
             inkscape:connector-curvature="0"
             id="path4540"
             d="m 833.92858,627.36218 c 3.69048,-5.2381 10.43315,-13.70353 17.5,-12.5 12.3707,2.10681 13.85296,20.62345 7.14285,27.14286 -5.42511,5.27093 -12.66868,-2.67451 -13.21428,-5.71429 -0.83334,-4.64286 2.61904,-10 8.21428,-4.28571"
             style="fill:none;stroke:#000000;stroke-width:2;stroke-linecap:butt;stroke-linejoin:miter;stroke-miterlimit:4;stroke-opacity:1;stroke-dasharray:none" />
          <path
             style="fill:none;stroke:#000000;stroke-width:2;stroke-linecap:butt;stroke-linejoin:miter;stroke-miterlimit:4;stroke-opacity:1;stroke-dasharray:none"
             d="m 898.63956,628.32901 c -3.69048,-5.2381 -10.43315,-13.70353 -17.5,-12.5 -12.3707,2.10681 -13.85296,20.62345 -7.14285,27.14286 5.42511,5.27093 12.66868,-2.67451 13.21428,-5.71429 0.83334,-4.64286 -2.61904,-10 -8.21428,-4.28571"
             id="path4542"
             inkscape:connector-curvature="0"
             sodipodi:nodetypes="csssc" />
          <path
             sodipodi:nodetypes="cc"
             inkscape:connector-curvature="0"
             id="path4544"
             d="m 862,625.36218 10,0"
             style="fill:none;stroke:#000000;stroke-width:2;stroke-linecap:butt;stroke-linejoin:miter;stroke-miterlimit:4;stroke-opacity:1;stroke-dasharray:none" />
          <path
             sodipodi:nodetypes="cc"
             inkscape:connector-curvature="0"
             id="path4544-1"
             d="m 805,652.36218 0,5"
             style="fill:none;stroke:#000000;stroke-width:2;stroke-linecap:butt;stroke-linejoin:miter;stroke-miterlimit:4;stroke-opacity:1;stroke-dasharray:none" />
          <path
             sodipodi:nodetypes="cc"
             inkscape:connector-curvature="0"
             id="path4544-1-7"
             d="m 925,652.36218 0,5"
             style="fill:none;stroke:#000000;stroke-width:2;stroke-linecap:butt;stroke-linejoin:miter;stroke-miterlimit:4;stroke-opacity:1;stroke-dasharray:none" />
        </g>
        <g
           id="g4698">
          <path
             transform="translate(-0.89839751,-9.091373)"
             sodipodi:open="true"
             sodipodi:end="6.2811616"
             sodipodi:start="0"
             d="m 178,292.36218 c 0,33.13709 -25.96748,60 -58,60 -32.032515,0 -58,-26.86291 -58,-60 0,-33.13708 25.967485,-60 58,-60 31.98669,0 57.93515,26.78897 57.99988,59.87858"
             sodipodi:ry="60"
             sodipodi:rx="58"
             sodipodi:cy="292.36218"
             sodipodi:cx="120"
             id="path4600"
             style="fill:#d7d7d7;fill-opacity:1;fill-rule:nonzero;stroke:#000000;stroke-width:2;stroke-miterlimit:4;stroke-dasharray:none"
             sodipodi:type="arc" />
          <g
             transform="translate(2.57143e-5,-1.4285934e-7)"
             id="g4642">
            <path
               style="fill:#d7d7d7;fill-opacity:1;stroke:#000000;stroke-width:2;stroke-linecap:butt;stroke-linejoin:miter;stroke-miterlimit:4;stroke-opacity:1;stroke-dasharray:none"
               d="m 231.83001,430.36075 c 0,0 3.71753,17.18734 9.09137,23.73859 6.68424,8.14876 -2.04543,15.14112 -10.6066,21.2132 -8.78918,6.2338 -11.12595,18.70078 -10.85914,28.28427 -3.03046,0.92597 -6.06091,1.85195 -9.09137,2.77792 4.12479,6.39763 3.19882,9.76481 2.52538,14.64721 l -26.01143,-0.50507 c 0.92252,-7.21578 6.21231,-14.66915 11.11168,-18.18275 -6.77325,-3.98809 12.52555,-27.97664 18.94036,-33.58757 8.3249,-7.28166 5.82814,-10.03757 -0.50508,-12.87945 -10.8576,-4.8721 -26.26396,-38.3858 -26.26396,-38.3858 z"
               id="path4638"
               inkscape:connector-curvature="0"
               sodipodi:nodetypes="csscccccsscc" />
            <path
               style="fill:#d7d7d7;fill-opacity:1;stroke:#000000;stroke-width:2;stroke-linecap:butt;stroke-linejoin:miter;stroke-miterlimit:4;stroke-opacity:1;stroke-dasharray:none"
               d="m 85.862966,423.28968 c -2.342578,8.56586 -6.144243,12.16629 -9.343911,18.18275 -3.208491,6.03305 -5.957527,11.41628 -2.777919,15.65736 2.634013,3.51334 6.121185,11.60689 6.313453,14.64722 0.365739,5.78342 3.191412,11.27013 6.565992,15.9099 11.496463,15.80669 16.754659,18.0696 20.455589,33.84011 0.65784,2.80322 7.24485,4.93838 8.33376,2.27284 3.22183,-7.88674 -2.11358,-9.49288 2.0203,-23.99112 -15.82846,-4.83488 -21.205507,-27.23606 -24.0814,-42.50138 -1.317467,-6.99315 8.73345,-13.38838 11.95957,-14.3197 9.44911,-2.72779 13.97378,-12.71109 22.72844,-19.44544 l -25.75889,-26.01143 c -6.946186,11.02227 -15.323247,21.76685 -16.414984,25.75889 z"
               id="path4640"
               inkscape:connector-curvature="0"
               sodipodi:nodetypes="ssssssscssccs" />
          </g>
          <g
             transform="translate(265.89572,3.0152544)"
             id="g4617">
            <g
               id="g4612"
               transform="translate(-40.110235,-97.270511)">
              <path
                 sodipodi:nodetypes="cscccscc"
                 inkscape:connector-curvature="0"
                 id="path4606"
                 d="M -5.0000001,314.50504 C 39.04674,328.53138 25.74227,339.13903 48.57143,345.9336 c 32.78166,9.75672 26.62977,-7.28496 62.14286,21.42858 -23.32774,0.85246 -39.91131,-0.0918 -60,9.28571 11.83339,16.93325 28.24936,34.99204 32.14285,52.85715 -38.21827,-32.06101 -38.37243,-16.37289 -64.28571,-30 -20.1897601,-10.61726 -7.54884,-12.71405 -46.42857,-27.85715 z"
                 style="fill:#d7d7d7;fill-opacity:1;stroke:#000000;stroke-width:2;stroke-linecap:butt;stroke-linejoin:miter;stroke-miterlimit:4;stroke-opacity:1;stroke-dasharray:none" />
              <path
                 inkscape:connector-curvature="0"
                 id="path4608"
                 d="m 12.857138,321.6479 -22.85714,58.57143"
                 style="fill:none;stroke:#000000;stroke-width:2;stroke-linecap:butt;stroke-linejoin:miter;stroke-miterlimit:4;stroke-opacity:1;stroke-dasharray:none" />
              <path
                 sodipodi:nodetypes="csc"
                 inkscape:connector-curvature="0"
                 id="path4610"
                 d="m -16.428572,340.93361 c 14.2757105,4.34077 18.2506205,8.14553 28.57143,17.85715 11.41964,10.74559 24.617961,13.61284 39.285711,17.85714"
                 style="fill:none;stroke:#000000;stroke-width:2;stroke-linecap:butt;stroke-linejoin:miter;stroke-miterlimit:4;stroke-opacity:1;stroke-dasharray:none" />
            </g>
            <path
               style="fill:#d7d7d7;fill-opacity:1;stroke:#000000;stroke-width:2;stroke-linecap:butt;stroke-linejoin:miter;stroke-miterlimit:4;stroke-opacity:1;stroke-dasharray:none"
               d="m -180.71429,511.6479 12.14286,6.42857 127.14286,-310 11.42857,5 5,-12.85714 -10.71429,-5 7.14286,-15.71429 L -40,173.79076 l -6.42857,17.14285 -11.42857,-5 -5.71429,12.85715 12.14286,5 z"
               id="path4604"
               inkscape:connector-curvature="0" />
          </g>
          <g
             transform="translate(2.57143e-5,-1.4285934e-7)"
             id="g4632">
            <path
               style="fill:#d7d7d7;fill-opacity:1;stroke:#000000;stroke-width:2;stroke-linecap:butt;stroke-linejoin:miter;stroke-miterlimit:4;stroke-opacity:1;stroke-dasharray:none"
               d="m 152.78557,303.33407 c 7.71541,11.03705 -15.77158,3.27369 -17.17259,10.35406 -7.29901,36.88735 44.16054,34.86708 56.82108,31.06219 7.29131,-2.19127 13.05394,-2.42724 20.20305,-1.01015 5.46291,1.08285 9.31956,0.0472 13.13199,-1.76776 4.05102,-1.9286 9.52143,-1.79278 13.38452,-0.50508 4.04061,1.34687 6.79826,2.17899 10.35406,0.25254 13.72213,-3.5055 26.16631,1.55814 33.67894,10.02041 5.50627,6.2023 7.66209,15.98348 9.25254,16.74863 2.78924,1.34188 3.50624,5.4912 3.53554,8.5863 0.0674,7.11831 3.51683,9.61759 6.56599,13.63706 6.93919,9.14739 6.22424,22.15521 8.08122,33.33503 0.48178,2.90052 -5.18398,8.51232 -8.33376,1.51522 -2.73724,-6.08065 -5.91954,-7.82018 -10.35406,-11.11167 -2.55059,-1.89316 -5.69071,-4.70437 -5.55584,-10.6066 0.11357,-4.97028 -4.71405,-8.75465 -7.07107,-13.13198 1.08763,12.0601 -0.29635,23.10855 -3.283,34.59772 9.16301,12.53719 16.58628,29.67419 5.3033,40.15356 -1.87761,9.46403 -1.78293,21.07551 2.02031,32.32489 -2.06759,1.73543 -4.44049,3.56994 -5.98109,6.32849 -1.91221,3.42396 -2.6787,7.99848 -1.59506,12.35933 l -21.71827,0.50508 c 1.26506,-8.5807 5.12636,-16.76246 10.6066,-19.1929 -6.23415,-40.95976 10.68155,-41.50133 0.50507,-45.45687 -16.60677,-6.45497 -20.14483,-11.96645 -49.49747,-24.24366 -19.69798,-0.16836 -27.02158,15.82572 -59.09393,-0.50508 0,7.15525 -1.26269,15.82573 -6.06091,23.73859 4.17279,9.32622 4.2174,18.45557 -0.50508,27.27412 -2.67271,4.9909 -2.3085,11.42922 -0.50508,17.42513 2.2046,7.32971 2.02031,13.21616 -5.55583,19.44543 0.33672,3.53554 0.67343,7.07107 1.01015,10.60661 l -22.72843,0 c 1.18763,-10.53248 4.88279,-16.78352 12.12183,-19.1929 -2.73656,-23.99194 0.25128,-24.42325 -0.21093,-36.8345 -0.25599,-6.87364 -2.8159,-13.97645 -3.07207,-20.7442 -3.25316,-7.06104 -5.76476,-14.39335 -8.33376,-21.71828 -3.53553,-2.35702 -6.48928,-4.50549 -10.6066,-6.81852 -4.1158,-2.31218 -6.19395,-2.71438 -8.08122,-6.31346 -1.72187,-3.28365 -5.724196,-4.71405 -8.586294,-7.07107 C 63.976328,363.10143 80.728024,313.77232 93.43911,283.6361 c -2.777919,-4.88241 -3.282995,-8.75466 -3.788072,-13.88961 10.118109,0.98922 12.801582,-2.81188 15.404822,-2.27284 13.34737,-15.30317 33.22332,-16.86298 42.42641,-1.01015 3.56719,6.14468 7.63633,12.40305 12.62691,17.1726 5.28125,5.04735 10.01735,22.22335 -7.32361,19.69797 z"
               id="path4624"
               inkscape:connector-curvature="0"
               sodipodi:nodetypes="cssssscssssssssccccscccscccssccccsccssccccssc" />
            <path
               sodipodi:type="arc"
               style="fill:#000000;fill-opacity:1;fill-rule:nonzero;stroke:none"
               id="path4626"
               sodipodi:cx="136.96428"
               sodipodi:cy="278.07648"
               sodipodi:rx="3.0357144"
               sodipodi:ry="3.2142856"
               d="m 139.99999,278.07648 c 0,1.7752 -1.35913,3.21428 -3.03571,3.21428 -1.67658,0 -3.03572,-1.43908 -3.03572,-3.21428 0,-1.7752 1.35914,-3.21429 3.03572,-3.21429 1.67418,0 3.03232,1.43512 3.03571,3.20778"
               sodipodi:start="0"
               sodipodi:end="6.2811616"
               sodipodi:open="true"
               transform="matrix(1.3333333,0,0,1.3333333,-46.642856,-91.620733)" />
            <path
               style="fill:none;stroke:#000000;stroke-width:2;stroke-linecap:butt;stroke-linejoin:miter;stroke-miterlimit:4;stroke-opacity:1;stroke-dasharray:none"
               d="m 98.571429,289.86218 c -7.619048,-7.14286 -8.452381,-12.85714 -10,-21.42857 10.346843,3.44666 19.244271,-4.79899 26.428571,1.78571"
               id="path4628"
               inkscape:connector-curvature="0"
               sodipodi:nodetypes="ccc" />
            <path
               style="fill:none;stroke:#000000;stroke-width:2;stroke-linecap:butt;stroke-linejoin:miter;stroke-miterlimit:4;stroke-opacity:1;stroke-dasharray:none"
               d="m 216.42857,428.07647 -3.03571,-2.67857 -4.10715,-4.46429"
               id="path4630"
               inkscape:connector-curvature="0"
               sodipodi:nodetypes="ccc" />
          </g>
        </g>
      </g>
    </g>
  </g>
</svg>
