<?xml version="1.0" encoding="UTF-8" standalone="no"?>
<!-- Created with Inkscape (http://www.inkscape.org/) -->

<svg
   xmlns:dc="http://purl.org/dc/elements/1.1/"
   xmlns:cc="http://creativecommons.org/ns#"
   xmlns:rdf="http://www.w3.org/1999/02/22-rdf-syntax-ns#"
   xmlns:svg="http://www.w3.org/2000/svg"
   xmlns="http://www.w3.org/2000/svg"
   xmlns:sodipodi="http://sodipodi.sourceforge.net/DTD/sodipodi-0.dtd"
   xmlns:inkscape="http://www.inkscape.org/namespaces/inkscape"
   width="1998.0312"
   height="3185.2812"
   id="svg2"
   version="1.1"
   inkscape:version="0.48.5 r10040"
   sodipodi:docname="HUN Salgótarján Címer.svg">
  <defs
     id="defs4" />
  <sodipodi:namedview
     id="base"
     pagecolor="#ffffff"
     bordercolor="#666666"
     borderopacity="1.0"
     inkscape:pageopacity="0.0"
     inkscape:pageshadow="2"
     inkscape:zoom="0.12374369"
     inkscape:cx="2351.1143"
     inkscape:cy="1548.682"
     inkscape:document-units="px"
     inkscape:current-layer="layer1"
     showgrid="false"
     showguides="true"
     inkscape:guide-bbox="true"
     inkscape:object-nodes="true"
     inkscape:object-paths="true"
     inkscape:snap-global="true"
     inkscape:window-width="1280"
     inkscape:window-height="972"
     inkscape:window-x="-8"
     inkscape:window-y="-8"
     inkscape:window-maximized="1"
     fit-margin-top="0"
     fit-margin-left="0"
     fit-margin-right="0"
     fit-margin-bottom="0">
    <sodipodi:guide
       orientation="1,0"
       position="3158.1786,1343.7048"
       id="guide2998" />
    <sodipodi:guide
       orientation="1,0"
       position="998.1786,2989.4191"
       id="guide3919" />
  </sodipodi:namedview>
  <metadata
     id="metadata7">
    <rdf:RDF>
      <cc:Work
         rdf:about="">
        <dc:format>image/svg+xml</dc:format>
        <dc:type
           rdf:resource="http://purl.org/dc/dcmitype/StillImage" />
        <dc:title></dc:title>
      </cc:Work>
    </rdf:RDF>
  </metadata>
  <g
     inkscape:groupmode="layer"
     id="layer2"
     inkscape:label="RASZTER"
     transform="translate(2786.75,1063.5)" />
  <g
     inkscape:label="Layer 1"
     inkscape:groupmode="layer"
     id="layer1"
     transform="translate(2786.75,1063.5)">
    <g
       id="g3921">
      <g
         transform="translate(-2160,860)"
         id="g3889">
        <path
           sodipodi:nodetypes="cccccccccccccccccccc"
           style="fill:#f8c301;fill-opacity:1;stroke:none"
           d="m -431.42857,-1204.7807 -191.42857,-508.5714 231.42857,-83.5715 35.71428,102.1429 184.28572,-55.7143 -28.57143,-108.5714 237.142857,-40 15.714286,107.1429 L 260,-1806.2092 252.85714,-1920.495 c 79.63724,-4.4516 159.17306,-2.0358 238.81654,0 l -7.14286,114.2858 207.14286,14.2857 15.71428,-107.1429 237.14286,40 -28.57143,108.5714 184.28571,55.7143 35.7143,-102.1429 231.4286,83.5715 -191.4286,508.5714"
           id="path3885"
           inkscape:connector-curvature="0" />
        <path
           style="fill:none;stroke:#000000;stroke-width:6;stroke-linecap:butt;stroke-miterlimit:4.7171874;stroke-dasharray:none;stroke-dashoffset:0"
           d="m -431.42857,-1204.7807 -191.42857,-508.5714 231.42857,-83.5715 35.71428,102.1429"
           id="path3815"
           inkscape:connector-curvature="0"
           sodipodi:nodetypes="cccc" />
        <path
           style="fill:none;stroke:#000000;stroke-width:6;stroke-linecap:butt;stroke-miterlimit:4.7171874;stroke-dasharray:none;stroke-dashoffset:0"
           d="m -583.03991,-1607.569 c 389.29771,-161.0045 586.2500221,-193.0199 955.30531,-198.6402 369.0553,5.6203 566.00761,37.6357 955.3053,198.6402"
           id="path3817"
           inkscape:connector-curvature="0"
           sodipodi:nodetypes="ccc" />
        <path
           style="fill:none;stroke:#000000;stroke-width:6;stroke-linecap:butt;stroke-miterlimit:4.7171874;stroke-dasharray:none;stroke-dashoffset:0"
           d="m -544.51923,-1505.2305 c 273.5379,-113.7658 572.38702,-182.4073 916.78463,-182.4073 344.39762,0 643.2468,68.6415 916.7847,182.4073"
           id="path3819"
           inkscape:connector-curvature="0"
           sodipodi:nodetypes="ccc" />
        <path
           style="fill:none;stroke:#000000;stroke-width:6;stroke-linecap:butt;stroke-miterlimit:4.7171874;stroke-dasharray:none;stroke-dashoffset:0"
           d="m -505.64399,-1401.95 c 303.17303,-123.2378 605.70885,-171.4021 877.90939,-171.4021 272.20055,0 574.73637,48.1643 877.9094,171.4021"
           id="path3821"
           inkscape:connector-curvature="0"
           sodipodi:nodetypes="ccc" />
        <path
           style="fill:none;stroke:#000000;stroke-width:6;stroke-linecap:butt;stroke-miterlimit:4.7171874;stroke-dasharray:none;stroke-dashoffset:0"
           d="M -171.42857,-1750.495 -200,-1859.0664 l 237.142857,-40 15.714286,107.1429"
           id="path3827"
           inkscape:connector-curvature="0"
           sodipodi:nodetypes="cccc" />
        <path
           style="fill:none;stroke:#000000;stroke-width:6;stroke-linecap:butt;stroke-miterlimit:4.7171874;stroke-dasharray:none;stroke-dashoffset:0"
           d="m -473.04955,-1651.5679 33.52639,104.9484 m 34.23282,107.1598 35.13936,109.9975"
           id="path3831"
           inkscape:connector-curvature="0"
           sodipodi:nodetypes="cccc" />
        <path
           style="fill:none;stroke:#000000;stroke-width:6;stroke-linecap:butt;stroke-miterlimit:4.7171874;stroke-dasharray:none;stroke-dashoffset:0"
           d="m -341.14128,-1579.5845 34.40201,107.1462"
           id="path3833"
           inkscape:connector-curvature="0" />
        <path
           style="fill:none;stroke:#000000;stroke-width:6;stroke-linecap:butt;stroke-miterlimit:4.7171874;stroke-dasharray:none;stroke-dashoffset:0"
           d="m -272.60169,-1721.0767 27.92488,114.2488 m 26.69582,109.2204 27.13839,111.031"
           id="path3835"
           inkscape:connector-curvature="0"
           sodipodi:nodetypes="cccc" />
        <path
           style="fill:none;stroke:#000000;stroke-width:6;stroke-linecap:butt;stroke-miterlimit:4.7171874;stroke-dasharray:none;stroke-dashoffset:0"
           d="m -140.28907,-1633.2408 25.39002,111.2978"
           id="path3837"
           inkscape:connector-curvature="0" />
        <path
           style="fill:none;stroke:#000000;stroke-width:6;stroke-linecap:butt;stroke-miterlimit:4.7171874;stroke-dasharray:none;stroke-dashoffset:0"
           d="m -51.74541,-1773.76 19.747213,120.3842 m 18.153044,110.6657 18.912208,115.2938"
           id="path3839"
           inkscape:connector-curvature="0"
           sodipodi:nodetypes="cccc" />
        <path
           style="fill:none;stroke:#000000;stroke-width:6;stroke-linecap:butt;stroke-miterlimit:4.7171874;stroke-dasharray:none;stroke-dashoffset:0"
           d="m 165.8317,-1798.6989 8.72301,119.665 m 8.17299,112.1198 8.57682,117.6595"
           id="path3841"
           inkscape:connector-curvature="0"
           sodipodi:nodetypes="cccc" />
        <path
           style="fill:none;stroke:#000000;stroke-width:6;stroke-linecap:butt;stroke-miterlimit:4.7171874;stroke-dasharray:none;stroke-dashoffset:0"
           d="m 74.369226,-1669.8127 12.643533,113.9761"
           id="path3843"
           inkscape:connector-curvature="0" />
        <path
           style="fill:none;stroke:#000000;stroke-width:6;stroke-linecap:butt;stroke-miterlimit:4.7171874;stroke-dasharray:none;stroke-dashoffset:0"
           d="m 371.42857,-1806.2092 0,118.5714 m 0,115 0,116.4286"
           id="path3845"
           inkscape:connector-curvature="0"
           sodipodi:nodetypes="cccc" />
        <path
           style="fill:none;stroke:#000000;stroke-width:6;stroke-linecap:butt;stroke-miterlimit:4.7171874;stroke-dasharray:none;stroke-dashoffset:0"
           d="m 274.24721,-1685.7818 5.71153,114.2466"
           id="path3847"
           inkscape:connector-curvature="0" />
        <path
           inkscape:connector-curvature="0"
           id="path3849"
           d="m 1175.9594,-1204.7807 191.4286,-508.5714 -231.4286,-83.5714 -35.7143,102.1428"
           style="fill:none;stroke:#000000;stroke-width:6;stroke-linecap:butt;stroke-miterlimit:4.7171874;stroke-dasharray:none;stroke-dashoffset:0"
           sodipodi:nodetypes="cccc" />
        <path
           sodipodi:nodetypes="ccc"
           inkscape:connector-curvature="0"
           id="path3857"
           d="m 1208.1191,-1290.2198 c -279.28494,-128.7645 -598.03623,-165.9894 -835.8537,-165.9894 -237.81746,0 -556.56875,37.2249 -835.85363,165.9894"
           style="fill:none;stroke:#000000;stroke-width:6;stroke-linecap:butt;stroke-miterlimit:4.7171874;stroke-dasharray:none;stroke-dashoffset:0" />
        <path
           inkscape:connector-curvature="0"
           id="path3861"
           d="m 915.95938,-1750.495 28.57143,-108.5714 -237.14286,-40 -15.71428,107.1429"
           style="fill:none;stroke:#000000;stroke-width:6;stroke-linecap:butt;stroke-miterlimit:4.7171874;stroke-dasharray:none;stroke-dashoffset:0" />
        <path
           inkscape:connector-curvature="0"
           id="path3863"
           d="m 484.53081,-1806.2092 7.14286,-114.2858 -238.81653,0 7.14286,114.2858"
           style="fill:none;stroke:#000000;stroke-width:6;stroke-linecap:butt;stroke-miterlimit:4.7171874;stroke-dasharray:none;stroke-dashoffset:0"
           sodipodi:nodetypes="cccc" />
        <path
           sodipodi:nodetypes="cccc"
           inkscape:connector-curvature="0"
           id="path3865"
           d="m 1217.5804,-1651.5679 -33.5264,104.9484 m -34.2328,107.1598 -35.1394,109.9975"
           style="fill:none;stroke:#000000;stroke-width:6;stroke-linecap:butt;stroke-miterlimit:4.7171874;stroke-dasharray:none;stroke-dashoffset:0" />
        <path
           inkscape:connector-curvature="0"
           id="path3867"
           d="m 1085.6721,-1579.5845 -34.402,107.1462"
           style="fill:none;stroke:#000000;stroke-width:6;stroke-linecap:butt;stroke-miterlimit:4.7171874;stroke-dasharray:none;stroke-dashoffset:0" />
        <path
           sodipodi:nodetypes="cccc"
           inkscape:connector-curvature="0"
           id="path3869"
           d="m 1017.1325,-1721.0767 -27.92488,114.2488 m -26.69582,109.2204 -27.13839,111.031"
           style="fill:none;stroke:#000000;stroke-width:6;stroke-linecap:butt;stroke-miterlimit:4.7171874;stroke-dasharray:none;stroke-dashoffset:0" />
        <path
           inkscape:connector-curvature="0"
           id="path3871"
           d="m 884.81988,-1633.2408 -25.39002,111.2978"
           style="fill:none;stroke:#000000;stroke-width:6;stroke-linecap:butt;stroke-miterlimit:4.7171874;stroke-dasharray:none;stroke-dashoffset:0" />
        <path
           sodipodi:nodetypes="cccc"
           inkscape:connector-curvature="0"
           id="path3873"
           d="m 796.27622,-1773.76 -19.74721,120.3842 m -18.15305,110.6657 -18.9122,115.2938"
           style="fill:none;stroke:#000000;stroke-width:6;stroke-linecap:butt;stroke-miterlimit:4.7171874;stroke-dasharray:none;stroke-dashoffset:0" />
        <path
           sodipodi:nodetypes="cccc"
           inkscape:connector-curvature="0"
           id="path3875"
           d="m 578.69911,-1798.6989 -8.72301,119.665 m -8.17299,112.1198 -8.57682,117.6595"
           style="fill:none;stroke:#000000;stroke-width:6;stroke-linecap:butt;stroke-miterlimit:4.7171874;stroke-dasharray:none;stroke-dashoffset:0" />
        <path
           inkscape:connector-curvature="0"
           id="path3877"
           d="m 670.16158,-1669.8127 -12.64353,113.9761"
           style="fill:none;stroke:#000000;stroke-width:6;stroke-linecap:butt;stroke-miterlimit:4.7171874;stroke-dasharray:none;stroke-dashoffset:0" />
        <path
           inkscape:connector-curvature="0"
           id="path3881"
           d="m 470.2836,-1685.7818 -5.71153,114.2466"
           style="fill:none;stroke:#000000;stroke-width:6;stroke-linecap:butt;stroke-miterlimit:4.7171874;stroke-dasharray:none;stroke-dashoffset:0" />
      </g>
      <path
         sodipodi:nodetypes="sccccccscs"
         inkscape:connector-curvature="0"
         id="path3770"
         d="m -2060,1961.7705 -320,0 c -206.7516,0 -353.7955,-154.7397 -353.7955,-359.694 l 0,-2046.85717 c 630.3128,0 1260.6256,0 1890.9384,0 l 0,2046.85717 c 0,204.9543 -147.0439,359.694 -353.7956,359.694 l -320,0 c -73.8747,0 -194.6438,46.4574 -271.6736,151.2232 -77.0298,-104.7658 -197.7989,-151.2232 -271.6737,-151.2232 z"
         style="fill:#d7d7d7;fill-opacity:1;stroke:#000000;stroke-width:6;stroke-linecap:butt;stroke-miterlimit:4.7171874;stroke-dasharray:none;stroke-dashoffset:0" />
      <path
         id="path3793"
         d="m -842.84375,1125.5 c -94.44441,1.826 -156.46911,12.8589 -258.31245,104.6562 -98.7129,-67.5525 -249.5464,-182.7697 -452.5626,-4.0624 -130.6464,-125.5458 -261.291,-119.4998 -391.9374,-8.0626 l -79.8438,746.6563 c 73.1952,11.6476 171.2323,58.6089 237.1875,148.3125 77.0298,-104.7658 197.7815,-151.2188 271.6563,-151.2188 l 320,0 c 206.75165,0 353.81245,-154.7644 353.81245,-359.7187 l 0,-476.5625 z"
         style="fill:#4cb034;fill-opacity:1;stroke:#000000;stroke-width:6;stroke-linecap:butt;stroke-miterlimit:4.7171874;stroke-dasharray:none;stroke-dashoffset:0"
         inkscape:connector-curvature="0" />
      <path
         sodipodi:nodetypes="cc"
         inkscape:connector-curvature="0"
         id="path3795"
         d="m -1553.7054,1226.1084 -223.214,203.214"
         style="fill:none;stroke:#000000;stroke-width:6;stroke-linecap:butt;stroke-miterlimit:4.7171874;stroke-dasharray:none;stroke-dashoffset:0" />
      <path
         inkscape:connector-curvature="0"
         id="path3797"
         d="m -1101.1571,1230.149 -109.0965,117.1777"
         style="fill:none;stroke:#000000;stroke-width:6;stroke-linecap:butt;stroke-miterlimit:4.7171874;stroke-dasharray:none;stroke-dashoffset:0" />
      <path
         id="rect3774"
         d="m -2733.7812,-444.78125 0,2046.84375 c 0,204.9543 147.0296,359.7187 353.7812,359.7187 l 320,0 c 73.7943,0 194.3965,46.3503 271.4375,150.875 l 0,-2557.43745 -945.2187,0 z"
         style="fill:#d7d7d7;fill-opacity:1;stroke:#000000;stroke-width:6;stroke-linecap:butt;stroke-miterlimit:4.7171874;stroke-dasharray:none;stroke-dashoffset:0"
         inkscape:connector-curvature="0" />
      <path
         inkscape:connector-curvature="0"
         id="rect3777"
         d="m -2733.7812,-444.78125 0,334.28125 945.2187,0 0,-334.28125 -945.2187,0 z m 0,677.15625 0,348.5625 945.2187,0 0,-348.5625 -945.2187,0 z m 0,691.40625 0,348.59375 945.2187,0 0,-348.59375 -945.2187,0 z m 0.1562,689.99995 c 5.4979,199.1 150.837,348 353.625,348 l 320,0 c 73.7943,0 194.3965,46.3504 271.4375,150.875 l 0,-498.875 -945.0625,0 z"
         style="fill:#000000;stroke:#000000;stroke-width:6;stroke-linecap:butt;stroke-miterlimit:4.7171874;stroke-dasharray:none;stroke-dashoffset:0" />
      <path
         inkscape:connector-curvature="0"
         id="path3813"
         d="m -1321.9703,1042.3034 c -6.9381,-23.3524 -14.6725,-59.42314 -14.6725,-68.42784 0,-1.8538 -0.4564,-3.3705 -1.0143,-3.3705 -0.5578,0 -6.817,2.9078 -13.9093,6.4617 -16.8975,8.4674 -16.9957,8.3699 -10.25,-10.177 5.7266,-15.7451 10.3991,-32.7128 12.6079,-45.7847 1.6046,-9.4962 4.0184,-40.954 3.3863,-44.1317 -0.2964,-1.4897 -1.9114,-0.3332 -7.969,5.7061 -9.125,9.0976 -15.8746,18.057 -20.4729,27.1756 -1.8721,3.7125 -3.587,6.75 -3.811,6.75 -0.2239,0 -2.8057,-3.8243 -5.7374,-8.4983 -2.9317,-4.6741 -5.8161,-8.4991 -6.4099,-8.5 -2.0579,0 -13.3778,11.1396 -19.2975,18.9956 -3.2715,4.3417 -8.51,12.4185 -11.6411,17.9484 -4.1487,7.3272 -6.219,10.0543 -7.6326,10.0543 -1.6953,0 -1.8544,-0.4726 -1.2624,-3.75 2.91,-16.108 12.2007,-39.2559 21.7674,-54.2338 2.2604,-3.5388 3.1777,-5.8753 2.5866,-6.5876 -0.5039,-0.607 -4.0643,-3.3143 -7.9122,-6.0162 -3.8479,-2.7018 -7.0034,-5.1423 -7.0124,-5.4234 -0.01,-0.281 4.3739,-2.4118 9.7396,-4.735 18.4693,-7.997 35.7867,-21.1027 46.9223,-35.5108 9.6912,-12.5392 17.6765,-31.4736 20.74,-49.1778 0.8504,-4.914 1.3657,-9.1149 1.1453,-9.3353 -0.5626,-0.5626 -13.2888,8.1494 -24.5634,16.8153 -12.7933,9.8332 -34.8896,32.1392 -44.2557,44.6757 -10.1532,13.59 -18.9263,28.5512 -30.4942,52.0033 -5.2551,10.654 -9.8674,19.0119 -10.2493,18.5732 -0.3821,-0.4387 -5.046,-7.1835 -10.3643,-14.9884 l -9.6698,-14.1909 -31.0191,18.6051 c -24.0176,14.4056 -31.2883,18.3359 -32.2116,17.4126 -0.9233,-0.9233 2.2595,-8.1009 14.101,-31.799 8.4114,-16.8336 14.9266,-30.9287 14.4782,-31.3225 -0.4484,-0.3938 -7.6961,-3.5816 -16.1061,-7.0841 -12.4088,-5.1679 -15.236,-6.7104 -15,-8.1841 0.2087,-1.303 3.8217,-3.2322 12.7909,-6.8297 17.4632,-7.0044 47.2388,-22.8173 68.6954,-36.482 26.8325,-17.0884 59.1987,-50.6986 82.5314,-85.70348 3.7039,-5.55678 6.5723,-10.26531 6.3743,-10.46339 -0.1981,-0.19808 -5.7019,0.99146 -12.2306,2.64342 -16.3754,4.14343 -16.9205,3.48506 -7.4805,-9.03597 9.4032,-12.47239 12.7549,-19.58668 15.6072,-33.12802 7.6786,-36.45488 8.5744,-73.05493 2.4743,-101.09282 -2.0456,-9.40199 -8.2875,-28.3703 -9.85,-29.93279 -2.7925,-2.7925 -33.9326,39.45342 -51.0662,69.27845 -3.9495,6.875 -11.7651,21.62475 -17.3681,32.77722 -8.3388,16.59809 -10.5339,20.22691 -12.098,20 -1.5854,-0.23002 -2.7736,-3.47104 -6.9785,-19.03437 -2.7873,-10.31644 -5.359,-18.64144 -5.715,-18.5 -0.3559,0.14143 -15.4535,17.58215 -33.5502,38.75715 -47.0283,55.02797 -50.3455,58.98109 -50.3455,59.99666 0,1.20959 3.7492,1.74258 20.6034,2.92895 16.5096,1.16213 23.6603,3.33284 28.2687,8.58147 3.3313,3.79418 3.6672,5.33839 5.5006,25.28872 1.4447,15.7212 0.8907,17.1679 -4.887,12.7611 -8.9603,-6.8343 -19.4991,-8.7143 -36.8507,-6.5735 -12.8498,1.5853 -15.9314,0.7314 -30.7872,-8.5306 -5.6913,-3.5483 -10.4796,-6.0565 -10.6406,-5.5738 -0.5267,1.579 4.9204,29.4769 6.927,35.4768 2.7102,8.1041 3.7118,9.4781 17.2353,23.6442 l 11.933,12.5 -10.0527,0.2839 c -12.031,0.3398 -22.1987,-1.5512 -29.4996,-5.4863 -11.5567,-6.2289 -22.446,-25.9341 -28.829,-52.1686 l -1.0634,-4.3709 -1.5823,2.3709 c -5.4516,8.1693 -11.146,11.4853 -27.2342,15.8598 -6.085,1.6545 -11.9842,3.5714 -13.1093,4.2597 -3.0291,1.8532 -5.4776,6.2968 -8.9815,16.2999 -3.4932,9.9726 -3.9772,10.7623 -6.097,9.9489 -1.0304,-0.3954 -2.4863,-5.7952 -4.7862,-17.7524 -5.3329,-27.725 -4.3946,-38.4633 4.0567,-46.4256 7.2699,-6.84929 21.5769,-11.27991 31.9715,-9.90102 7.1735,0.95161 12.614,-0.8646 17.6373,-5.88794 3.354,-3.35396 4.2672,-4.99676 4.2672,-7.67625 0,-4.71958 -1.853,-6.94061 -9.7104,-11.639 -8.6987,-5.20144 -15.0117,-11.70871 -22.6672,-23.36455 -9.047,-13.77467 -9.2128,-13.85054 -30.2703,-13.85054 -16.2383,0 -17.3521,-0.11917 -17.3521,-1.85648 0,-1.445 2.625,-2.87685 11.8433,-6.46006 16.8625,-6.55463 25.9203,-8.84135 35.0206,-8.84135 12.9953,0 26.0211,5.70601 34.4833,15.10545 4.4444,4.93675 5.9608,8.21386 7.6591,16.55244 1.4952,7.34141 3.1431,10.68574 6.6086,13.4117 7.2783,5.72512 21.045,-0.71922 33.6419,-15.74815 26.1231,-31.16641 75.7999,-91.43404 75.55,-91.65682 -0.1688,-0.15041 -8.6301,-3.28677 -18.8031,-6.96969 -10.1729,-3.68293 -18.6603,-6.86025 -18.8607,-7.06073 -0.2005,-0.20048 4.2789,-3.36814 9.9543,-7.03924 34.4801,-22.30347 57.5672,-44.04858 81.6595,-76.9126 l 8.4171,-11.48169 -2.0939,-9.27139 c -2.8683,-12.70004 -4.9023,-28.04063 -5.7024,-43.00703 l -0.6716,-12.56276 -9.4848,15.1492 c -27.9006,44.56289 -59.4813,83.9179 -90.8191,113.17619 l -11.2719,10.52385 -31.5651,-12.62705 c -25.7435,-10.29822 -31.5651,-12.97365 -31.5651,-14.50637 0,-1.23627 0.941,-2.08712 2.75,-2.48664 11.8307,-2.61274 24.7718,-8.37485 33.0951,-14.7358 16.4263,-12.55356 44.295,-56.80532 58.5711,-93.00322 7.9158,-20.07074 7.6697,-20.1812 -7.0974,-3.18634 -31.6788,36.45794 -63.5393,68.05878 -94.3585,93.58946 -8.758,7.25509 -16.7193,13.74711 -17.6919,14.42672 -1.5358,1.07316 -6.271,-1.74007 -36.0082,-21.39298 -22.002,-14.5408 -34.2435,-23.22074 -34.25,-24.2853 -0.01,-1.38113 1.6115,-1.7756 9.7398,-2.37173 5.3625,-0.39328 13.125,-1.55433 17.25,-2.58012 9.5208,-2.36759 25.4599,-10.27445 34.4818,-17.10529 9.7082,-7.35039 25.2929,-22.49704 34.7635,-33.78618 11.7961,-14.06131 32.9467,-44.01066 28.1498,-39.86031 -31.1307,26.93497 -55.3542,44.33024 -81.7616,58.71425 -17.4799,9.52127 -23.3549,11.87012 -25.1135,10.04054 -0.7372,-0.76697 -11.2395,-15.66114 -23.3385,-33.09816 -17.1305,-24.68852 -21.7133,-31.93999 -20.7112,-32.77164 0.9378,-0.77835 3.7325,-0.24856 10.3057,1.95369 11.486,3.84815 20.1259,4.00749 33.3458,0.61498 25.464,-6.53459 51.3244,-22.07215 73.388,-44.09335 9.935,-9.91591 22.4902,-25.50265 22.4902,-27.92058 0,-0.32655 -5.8328,2.32908 -12.9617,5.90141 -23.1075,11.57915 -75.5473,34.41913 -76.5286,33.33172 -2.0603,-2.28324 -38.5097,-60.32126 -38.5097,-61.31869 0,-2.41418 1.58,-2.49021 7.6111,-0.36627 14.999,5.28217 28.7708,6.23124 40.0336,2.7589 18.3442,-5.65556 43.6372,-20.92808 62.3553,-37.65156 l 4.5,-4.02048 -5.5,-0.57005 c -3.025,-0.31353 -13.825,-1.27929 -24,-2.14613 -30.5057,-2.59886 -54.6855,-6.39353 -90.7607,-14.24359 -1.2434,-0.27056 -2.4853,-1.45105 -2.7598,-2.62331 -4.2698,-18.23499 -15.2332,-71.22093 -14.861,-71.82315 1.1235,-1.81787 3.343,-0.55388 6.9215,3.94178 7.0167,8.81495 14.9334,16.39604 19.6485,18.81555 6.9951,3.5894 24.4401,8.18103 39.7446,10.46097 15.1158,2.25185 49.2278,3.70966 52.9415,2.26251 2.1523,-0.83873 0.561,-2.08377 -17,-13.30066 -51.722,-33.03693 -67.6874,-44.92619 -91.2063,-67.92056 l -11.8316,-11.567819 0.5968,-16.5 c 1.1781,-32.57043 1.5871,-37.0024 3.4127,-36.97685 0.9923,0.0139 3.2099,2.79006 5.5441,6.94048 9.778,17.38624 37.5633,38.42668 74.1097,56.119599 14.6185,7.07716 34.0918,14.65829 35.0895,13.66066 0.2246,-0.22465 -3.0786,-3.51454 -7.3405,-7.31087 -37.9613,-33.814179 -76.5246,-77.379809 -99.5233,-112.433019 l -5.5769,-8.5 7.259,-28 c 6.2326,-24.04034 7.5359,-28.0413 9.2159,-28.29207 1.7467,-0.2607 2.1518,0.85266 3.7724,10.36924 2.5662,15.06896 4.9082,21.17914 12.5576,32.76281 20.0104,30.3018703 52.6533,62.13002 87.5483,85.36325 13.885,9.24467 14.6056,9.26284 5.998,0.15121 -32.705,-34.62025 -66.3837,-79.06057 -87.0415,-114.85444 -6.8321,-11.838 -21.4266,-41.154711 -25.4559,-51.134401 l -2.2748,-5.63441 19.3838,-38.1412 c 13.823,-27.19904 19.8149,-38.05496 20.8862,-37.84058 1.0286,0.20585 1.4536,1.39613 1.3481,3.77561 -0.085,1.91124 -0.1995,9.99999 -0.255,17.97499 -0.1579,22.65938 4.067,38.33688 16.848,62.51937 15.0414,28.459161 35.3605,57.658581 60.8713,87.474421 11.1819,13.0689599 31.4599,34.67041 37.6398,40.09645 l 3.6079,3.1678 -5.1379,-8.87902 c -11.4919,-19.85932 -24.5731,-47.76307 -37.6814,-80.37903 -7.8523,-19.538011 -21.2386,-56.258011 -21.2386,-58.259551 0,-0.96723 33.9342,-56.99054 35.4429,-58.51398 0.1489,-0.15044 0.8977,-0.0328 1.664,0.26139 1.1038,0.42384 1.4019,3.6993 1.4353,15.77353 0.035,12.55016 0.4493,16.82644 2.3491,24.23862 8.0731,31.49805 26.7994,61.615181 63.5942,102.277381 27.8352,30.7609699 32.2037,36.5182599 40.8854,53.88362 9.5865,19.175 13.4132,35.38442 12.2523,51.89946 -0.898,12.77446 -3.6263,21.17109 -8.5163,26.20992 -5.9913,6.173689 -12.7554,8.242579 -30.1641,9.226189 -8.0064,0.45237 -16.425,1.32545 -18.7079,1.94018 -5.4564,1.46926 -11.758,6.39548 -15.9053,12.43381 -10.3298,15.03975 -10.5606,42.88604 -0.4869,58.73163 8.4629,13.31198 19.793,17.35145 36.6573,13.06936 12.0129,-3.05024 18.5735,-4.07652 33.116,-5.18035 29.4455,-2.23504 62.7682,3.05984 91.4331,14.52843 5.0024,2.00143 9.7138,3.40158 10.4699,3.11146 1.7051,-0.65432 12.3485,-13.96684 17.2043,-21.51874 5.7971,-9.01582 10.9557,-20.88733 14.1896,-32.65455 2.7386,-9.96516 6.2218,-26.4578 5.5878,-26.4578 -0.1425,0 -2.6759,1.10379 -5.6299,2.45287 -7.3616,3.36208 -16.2564,5.54713 -22.5809,5.54713 -4.8362,0 -5.285,-0.19298 -5.2324,-2.25 0.04,-1.56042 2.0622,-3.7824 6.5985,-7.25 13.4815,-10.3053 24.4835,-24.848286 28.4572,-37.616069 1.058,-3.39925 1.7465,-6.3576 1.5299,-6.57412 -0.2165,-0.21652 -3.2623,0.0718 -6.7684,0.6407 -15.2629,2.47658 -30.7304,0.38295 -43.3747,-5.87107 -9.1631,-4.53222 -18.7413,-13.23818 -16.7524,-15.22701 0.88,-0.88009 2.8003,-0.65037 7.9562,0.95185 16.25,5.04968 36.9894,5.614 46.9478,1.27744 5.0704,-2.20801 10.2323,-6.53119 9.1228,-7.64062 -0.3117,-0.31173 -3.426,-0.043 -6.9206,0.59709 -7.3428,1.34503 -15.5684,0.71939 -27.1971,-2.0686 -11.7245,-2.81096 -14.3738,-2.66504 -29.3946,1.61905 -1.6161,0.46093 -2.4289,0.14022 -2.9257,-1.15438 -0.9572,-2.49434 7.2188,-9.75396 13.3304,-11.8364 6.2285,-2.12226 10.3842,-2.01523 19.3533,0.49842 6.1585,1.72596 9.3348,2.01119 17.9799,1.61457 5.775,-0.26494 11.9379,-1.01871 13.6953,-1.67504 2.934,-1.09575 3.1134,-1.41179 2.1941,-3.86458 -4.3753,-11.67356 -16.0272,-17.20257 -25.7739,-12.23015 -3.5818,1.82728 -8.8238,6.92839 -10.8615,10.56949 -0.7865,1.40546 -1.406,1.13742 -4.4833,-1.93989 -2.1153,-2.11525 -4.5513,-3.57069 -5.9764,-3.57069 -2.5972,0 -7.5541,3.24686 -10.4876,6.86955 -2.3338,2.88215 -5.707,1.99498 -4.707,-1.23797 1.516,-4.90143 5.5198,-11.54814 9.872,-16.38892 8.1621,-9.0782198 25.6765,-19.12338 36.3066,-20.8232 3.6762,-0.58784 4.4087,-1.17421 6.27,-5.01919 5.5381,-11.44028 20.1283,-16.99419 47.4517,-18.06295 12.5171,-0.48961 15.5358,-0.255 28.5,2.21501 15.2427,2.90412 31.9986,3.73635 43.1216,2.14176 7.309,-1.04782 8.2865,0.71013 3.1624,5.68713 -4.5362,4.40602 -14.1154,9.1629399 -22.7355,11.2901499 -9.3105,2.2976 -7.1113,3.8071601 5.6965,3.9103201 7.0629,0.0569 10.267,0.45433 10.5519,1.3088499 0.2249,0.67493004 -3.1356,4.5201404 -7.4679,8.5449003 -9.8557,9.1561598 -12.999,14.7322298 -14.5059,25.7325498 -0.7249,5.29167 -1.1746,27.6716 -1.2323,61.33201 -0.092,53.872289 0.1763,59.160519 4.0129,79.000009 1.4889,7.69946 7.1029,28.53992 7.9038,29.3408 0.2139,0.21393 3.6747,-0.95807 7.6907,-2.60443 25.728,-10.54728 50.541,-15.42073 78.8019,-15.47729 18.8462,-0.0377 28.4523,0.98348 45.1778,4.80268 12.8514,2.9346 18.8978,3.04075 24.6448,0.43265 6.6785,-3.03079 9.6807,-5.53903 13.4791,-11.26161 12.934,-19.4859 10.7135,-52.54855 -4.4493,-66.24718 -6.9929,-6.31766 -10.9856,-7.49663 -28.6264,-8.45281 -11.9437,-0.64739 -17.0636,-1.35545 -21.2875,-2.94394 -11.397,-4.286076 -16.4453,-12.593519 -17.9313,-29.507299 -1.6209,-18.44907 1.2542,-32.7893 10.4919,-52.32925 7.9392,-16.7936297 16.3346,-28.5024801 33.791,-47.12755 53.8985,-57.506921 75.8614,-98.650951 74.5591,-139.674681 -0.1999,-6.29755 -0.023,-11.51759 0.3937,-11.60009 0.4164,-0.0825 1.2205,-0.195 1.7869,-0.25 0.5663,-0.055 9.0683,12.91896 18.8932,28.83103 l 17.86346,28.93104 -4.2844,12.06896 c -17.74116,49.975751 -38.96086,98.810931 -55.14336,126.907621 -2.4831,4.31126 -4.3127,8.04072 -4.0657,8.2877 0.516,0.51599 23.6381,-23.7748601 35.34,-37.12636 30.37306,-34.65481 54.55626,-69.769961 69.21256,-100.499991 11.9443,-25.04398 14.9085,-40.47573 13.1544,-68.48345 -0.435,-6.94587 -0.28,-8.02618 1.1926,-8.31226 1.3213,-0.2567 5.818,7.85572 20.5,36.98344 10.3441,20.52175 18.9592,37.90757 19.1448,38.63515 0.8829,3.46233 -17.9655,41.828111 -32.0811,65.300591 -20.8349,34.64605 -48.7466,71.08041 -80.25376,104.75894 -4.6764,4.99863 -8.5025,9.32263 -8.5025,9.60889 0,0.83549 16.7021,-10.17255 26.49996,-17.46566 24.7383,-18.41404 49.0591,-42.1051998 65.2139,-63.52565 14.4881,-19.21046 17.8097,-26.29043 21.1118,-45 1.4887,-8.4352 2.0707,-10.04374 3.7196,-10.27954 1.7605,-0.25176 2.6413,2.4313 8.8637,27 3.7999,15.00375 7.0727,27.74353 7.273,28.31063 0.9169,2.59728 -24.1137,36.98151 -43.3711,59.57826 -11.5178,13.51499 -43.4277,46.04874 -58.5527,59.697389 -5.908,5.3313 -10.34776,9.82583 -9.8663,9.98784 1.3051,0.4391 22.0489,-7.36849 32.6506,-12.28906 26.7786,-12.428799 58.5212,-34.281189 69.4923,-47.840219 2.7331,-3.37777 6.2059,-8.50821 7.7172,-11.40098 3.5708,-6.83433 5.8542,-7.01173 6.6205,-0.51432 0.3081,2.6125 0.8407,14.65 1.1836,26.75 l 0.6233,22 -12.3397,12.069339 c -22.5607,22.06635 -39.9052,35.13844 -83.1241,62.64849 -24.21676,15.41465 -26.70726,17.24588 -24.58126,18.07459 2.84416,1.10868 34.82836,0.20992 46.86566,-1.31692 21.2503,-2.69544 43.7684,-8.91523 50.3073,-13.89551 3.7531,-2.85848 11.0452,-10.74235 16.2607,-17.58025 2.6388,-3.45967 4.7673,-4.38424 5.8945,-2.56043 0.4638,0.75044 -13.1126,66.00671 -15.0199,72.19447 -1.1535,3.7421 -48.0394,12.1352 -88.5899,15.85854 -12.844,1.17934 -25.82766,2.38723 -28.85266,2.68421 l -5.5,0.53996 4.5,3.95709 c 16.50716,14.51561 38.61336,28.48311 55.92836,35.3376 14.9976,5.93708 30.8363,5.74976 47.4452,-0.56111 4.1519,-1.57763 5.3117,-1.69331 6.3697,-0.63536 1.0579,1.05794 -2.2602,6.82164 -18.2237,31.65481 -10.7344,16.69874 -19.6668,30.51101 -19.8497,30.69394 -1.0461,1.04609 -42.5674,-16.72806 -69.41286,-29.71381 -22.4112,-10.84079 -22.003,-10.90837 -12.387,2.05036 20.5163,27.6485 56.74216,52.51093 88.39026,60.66379 13.0272,3.35594 24.8152,3.00527 34.6621,-1.03115 7.2257,-2.9619 8.6574,-3.17386 9.3399,-1.38264 0.3579,0.93944 -28.4226,43.46607 -44.3183,65.48559 l -1.556,2.15543 -15.444,-7.73748 c -24.8653,-12.4576 -50.45016,-29.63087 -75.49566,-50.67483 -5.8773,-4.93829 -11.87,-9.87726 -13.3171,-10.97549 l -2.6312,-1.99678 1.8941,2.99678 c 17.2805,27.33999 43.7074,57.59537 62.14236,71.14499 16.6833,12.26214 30.3516,17.64422 49.5901,19.52683 9.9605,0.97469 11.8734,1.43091 11.8734,2.83177 0,1.08573 -11.5992,9.33509 -33.1575,23.58154 -18.2366,12.05141 -33.6657,22.21786 -34.2869,22.59212 -1.1102,0.66882 -19.41866,-13.73499 -35.17956,-27.67672 -29.5662,-26.1536 -56.7532,-54.20316 -88.7107,-91.52529 -3.7196,-4.3439 -3.8148,-4.38832 -3.1704,-1.47846 3.6218,16.3547 22.224,54.01615 38.2799,77.5 20.3121,29.70924 31.2842,38.372 56.9752,44.98338 3.0497,0.78482 4.25,1.60959 4.25,2.92033 0,1.45954 -6.2529,4.36047 -31.1148,14.43521 -22.2381,9.01151 -31.5813,12.35812 -32.75,11.73063 -2.9168,-1.56606 -41.4268,-41.27877 -50.0077,-51.56955 -18.0079,-21.59611 -39.7354,-52.22744 -56.7191,-79.96231 l -4.0915,-6.68156 -0.6559,13.67621 c -0.7215,15.04404 -2.7719,30.5168 -5.7298,43.23866 l -1.923,8.27099 5.206,7.22901 c 24.8597,34.5198 46.4622,55.41536 81.625,78.95422 7.3366,4.91128 13.1713,9.09757 12.9661,9.30286 -0.301,0.30096 -31.7494,11.96215 -36.6168,13.57762 -1.3389,0.44439 69.7777,87.12384 80.4404,98.04371 10.2233,10.46974 21.7174,14.51241 27.7562,9.76229 3.5295,-2.77631 5.2094,-6.234 7.1289,-14.67356 2.7789,-12.21781 9.5765,-20.10987 22.55016,-26.18102 14.9828,-7.01126 26.8411,-5.91303 55.6858,5.15719 8.1267,3.11894 10.25,4.33576 10.25,5.87418 0,1.84553 -0.8079,1.93634 -16.5308,1.85828 -21.1758,-0.10513 -21.6083,0.081 -30.4692,13.11281 -9.9328,14.60824 -12.1912,17.07928 -20.0521,21.94042 -12.87116,7.95949 -14.95006,11.22754 -11.44886,17.99797 3.3534,6.48494 11.84746,10.39836 20.47116,9.43161 11.1644,-1.25157 23.8876,2.63285 31.4469,9.60082 9.1478,8.4321 10.2645,19.8701 4.6343,47.4696 -2.9376,14.4 -4.0187,17.4347 -6.2287,17.4847 -0.3725,0.01 -2.0686,-3.6972 -3.769,-8.2347 -4.6914,-12.519 -6.7487,-16.504 -9.426,-18.2583 -1.3438,-0.8805 -7.5259,-2.9343 -13.738,-4.5642 -13.71596,-3.5985 -20.25956,-7.0929 -24.88966,-13.2914 l -3.5,-4.6857 -1.2755,4.7748 c -5.9654,22.3305 -12.8918,36.7556 -22.269,46.378 -7.4405,7.6351 -14.325,9.9098 -32.2055,10.6409 -7.4963,0.3065 -12.75,0.1412 -12.75,-0.4012 0,-0.5074 5.1799,-6.2239 11.5108,-12.7033 11.9379,-12.2179 13.477,-14.3844 16.5375,-23.28 2.081,-6.0486 7.2447,-32.6875 6.7669,-34.9099 -0.2319,-1.0788 -2.3977,-0.1297 -8.1954,3.5912 -15.55,9.9797 -16.9742,10.5072 -27.1198,10.0451 -28.2768,-1.2879 -32.726,-0.6387 -42.1877,6.1562 -6.5266,4.687 -6.9176,3.7116 -5.3981,-13.4665 0.6945,-7.8516 1.6362,-16.01278 2.0927,-18.13587 1.9534,-9.08483 10.6472,-13.30316 30.4931,-14.7955 19.659,-1.47829 21.6628,-1.79379 21.3098,-3.35529 -0.427,-1.88912 -83.1197,-98.50467 -83.7792,-97.88506 -0.2918,0.27415 -2.7806,8.68791 -5.5307,18.69724 -6.6747,24.29417 -6.2707,24.27765 -17.8307,0.72948 -14.9723,-30.499 -32.165,-59.01504 -49.2303,-81.65396 -8.1945,-10.87088 -18.6454,-23.37674 -19.5354,-23.37674 -2.1045,0 -9.2877,22.49042 -12.1304,37.97972 -3.1803,17.32896 -3.1337,51.6013 0.099,73.02028 4.471,29.61989 7.5206,38.03006 19.6508,54.19259 4.1658,5.55072 6.2628,9.20101 5.8714,10.22091 -0.3349,0.87257 -0.812,1.5865 -1.0603,1.5865 -0.2483,0 -5.8798,-1.37042 -12.5143,-3.04539 -6.6345,-1.67496 -12.2281,-2.88008 -12.4301,-2.67804 -0.4867,0.48668 11.4627,18.03539 19.5586,28.72343 16.1815,21.3625 40.0478,45.8617 57.1928,58.7094 20.4334,15.3118 57.8416,35.9728 83.8586,46.3162 6.9842,2.7766 9.579,4.2902 9.7986,5.7157 0.2971,1.9295 -1.6647,2.8908 -28.0457,13.7418 l -3.747,1.5413 15.456,30.8994 c 13.0286,26.0467 15.2308,31.0863 14.0223,32.0893 -1.1616,0.9641 -6.8931,-2.0892 -30.2089,-16.0926 -15.8264,-9.5053 -29.7344,-17.8927 -30.9065,-18.6386 -1.9763,-1.2576 -2.3407,-1.0447 -5.0152,2.931 -1.5863,2.3579 -6.2029,9.2036 -10.2591,15.2126 l -7.3749,10.9256 -9.9432,-19.9256 c -19.0491,-38.1731 -28.8675,-52.5359 -51.2588,-74.9835 -9.6875,-9.7117 -20.5626,-19.4373 -27.5177,-24.6089 -12.8658,-9.5665 -19.5534,-13.9464 -20.2426,-13.2572 -0.2543,0.2543 0.1232,3.8295 0.8389,7.9449 7.1936,41.3675 30.846,70.4861 70.6537,86.9821 3.7125,1.5384 6.75,3.097 6.75,3.4636 0,0.3665 -3.3542,3.0083 -7.4538,5.8706 -4.0995,2.8623 -7.6791,5.5688 -7.9545,6.0144 -0.2754,0.4457 1.0986,3.1852 3.0534,6.0879 8.1624,12.1205 16.6646,31.9233 20.4197,47.5606 2.3933,9.9662 2.3908,10.5 -0.051,10.5 -1.413,0 -2.8253,-1.6582 -4.8973,-5.75 -7.2637,-14.3443 -20.5665,-31.6858 -30.0965,-39.2337 l -3.7551,-2.9741 -5.3101,8.5295 c -2.9206,4.6912 -5.6606,8.7461 -6.089,9.0109 -0.4284,0.2648 -2.109,-2.1994 -3.7347,-5.4759 -4.3656,-8.7989 -10.0065,-16.6992 -18.1479,-25.417 -10.7424,-11.5028 -10.6054,-11.5114 -10.2514,0.6418 0.894,30.6919 4.6576,50.2375 15.4076,80.0163 4.8327,13.3873 5.3507,16.6526 2.6414,16.6519 -0.7048,-2e-4 -6.857,-2.712 -13.6718,-6.0263 -6.8147,-3.3143 -12.5672,-5.8491 -12.7833,-5.633 -0.2161,0.2161 -1.0761,5.0654 -1.9111,10.7762 -2.0679,14.14336 -8.6624,43.59984 -13.2944,59.38354 -3.122,10.6383 -4.1765,13.0542 -5.8047,13.2982 -1.7373,0.2603 -2.4533,-1.2621 -5.6436,-12 z m 1.6277,-1035.3712788 c 3.4132,-3.4132399 4.175,-7.35398026 2.2925,-11.8594702 -4.2171,-10.09282 -18.5927,-6.43423 -18.5927,4.73182994 0,8.45935016 10.4145,13.01334006 16.3002,7.12764026 z"
         style="fill:#000000" />
    </g>
  </g>
</svg>
